<svg xmlns="http://www.w3.org/2000/svg" xmlns:xlink="http://www.w3.org/1999/xlink" width="500" zoomAndPan="magnify" viewBox="0 0 375 374.999991" height="500" preserveAspectRatio="xMidYMid meet" version="1.0"><path fill="#7b4cee" d="M 217.121094 151.949219 C 217.121094 137.5625 206.964844 129.621094 189.128906 129.621094 L 156.316406 129.621094 L 156.316406 175.972656 L 183.984375 175.972656 C 205.339844 175.910156 217.121094 167.316406 217.121094 151.949219 Z M 336.585938 143.617188 C 330.402344 123.5 329.488281 98.828125 330.207031 79.75 C 330.921875 59.894531 315.425781 41.667969 294.59375 41.667969 L 80.535156 41.667969 C 59.636719 41.667969 44.207031 59.960938 44.925781 79.75 C 45.574219 98.828125 44.730469 123.5 38.542969 143.617188 C 32.292969 163.800781 21.8125 176.558594 4.558594 178.1875 L 4.558594 196.742188 C 21.746094 198.371094 32.292969 211.128906 38.542969 231.3125 C 44.730469 251.429688 45.640625 276.101562 44.925781 295.179688 C 44.207031 315.035156 59.703125 333.261719 80.535156 333.261719 L 294.53125 333.261719 C 315.425781 333.261719 330.855469 314.96875 330.140625 295.179688 C 329.488281 276.101562 330.335938 251.429688 336.519531 231.3125 C 342.769531 211.128906 353.253906 198.371094 370.441406 196.742188 L 370.441406 178.1875 C 353.316406 176.558594 342.769531 163.800781 336.585938 143.617188 Z M 195.441406 265.035156 L 131.707031 265.035156 L 131.707031 109.894531 L 195.117188 109.894531 C 223.308594 109.894531 241.796875 125.128906 241.796875 148.566406 C 241.796875 165.035156 229.359375 179.75 213.476562 182.289062 L 213.476562 183.136719 C 235.089844 185.480469 249.609375 200.453125 249.609375 221.089844 C 249.609375 248.5 229.230469 265.035156 195.441406 265.035156 Z M 188.933594 194.269531 L 156.316406 194.269531 L 156.316406 245.308594 L 190.363281 245.308594 C 212.628906 245.308594 224.414062 236.390625 224.414062 219.59375 C 224.414062 202.863281 212.304688 194.269531 188.933594 194.269531 Z M 188.933594 194.269531 " fill-opacity="1" fill-rule="nonzero"/></svg>