<svg xmlns="http://www.w3.org/2000/svg" xmlns:xlink="http://www.w3.org/1999/xlink" width="500" zoomAndPan="magnify" viewBox="0 0 375 374.999991" height="500" preserveAspectRatio="xMidYMid meet" version="1.0"><path fill="#7b4cee" d="M 176.835938 259.511719 C 176.660156 259.863281 176.484375 260.15625 176.835938 259.511719 Z M 322.792969 208.535156 C 316.902344 208.535156 311.085938 209.199219 305.347656 210.535156 C 299.605469 211.871094 294.09375 213.84375 288.808594 216.445312 C 285.351562 209.472656 281.777344 203.378906 281.191406 198.808594 C 280.488281 193.476562 279.726562 190.3125 280.546875 183.984375 C 281.367188 177.65625 285.058594 168.691406 285 168.046875 C 284.941406 167.402344 284.179688 164.179688 276.621094 164.121094 C 269.0625 164.0625 262.558594 165.585938 261.796875 167.578125 C 260.460938 171.226562 259.425781 174.957031 258.691406 178.769531 C 257.34375 185.625 243.574219 210.117188 235.78125 222.890625 C 233.203125 217.910156 231.035156 213.515625 230.566406 210 C 229.863281 204.667969 229.101562 201.503906 229.921875 195.175781 C 230.742188 188.847656 234.433594 179.882812 234.375 179.238281 C 234.316406 178.59375 233.554688 175.371094 225.996094 175.3125 C 218.4375 175.253906 211.933594 176.777344 211.171875 178.769531 C 210.410156 180.761719 209.589844 185.449219 208.066406 189.960938 C 206.542969 194.472656 188.203125 235.253906 183.398438 245.859375 C 180.9375 251.25 178.828125 255.585938 177.304688 258.515625 C 177.070312 258.984375 176.894531 259.277344 176.777344 259.511719 C 176.953125 259.21875 177.070312 258.925781 177.070312 259.042969 C 175.78125 261.5625 175.019531 262.96875 175.019531 262.96875 L 175.019531 263.027344 C 174.023438 264.902344 172.910156 266.601562 172.382812 266.601562 C 172.03125 266.601562 171.269531 261.679688 172.558594 254.941406 C 175.3125 240.761719 181.816406 218.730469 181.757812 217.96875 C 181.699219 217.558594 182.988281 213.75 177.480469 211.699219 C 172.148438 209.765625 170.214844 212.988281 169.746094 212.988281 C 169.277344 212.988281 168.925781 214.160156 168.925781 214.160156 C 168.925781 214.160156 174.84375 189.316406 157.558594 189.316406 C 146.777344 189.316406 131.777344 201.152344 124.394531 211.875 C 119.765625 214.394531 109.746094 219.84375 99.199219 225.644531 C 95.15625 227.871094 90.996094 230.15625 87.070312 232.324219 C 86.777344 232.03125 86.542969 231.738281 86.25 231.445312 C 65.273438 209.0625 26.542969 193.242188 28.183594 163.183594 C 28.769531 152.226562 32.578125 123.457031 102.65625 88.535156 C 160.078125 59.941406 206.015625 67.792969 213.867188 85.253906 C 225.234375 110.15625 189.316406 156.503906 129.667969 163.183594 C 106.933594 165.703125 94.980469 156.914062 91.992188 153.632812 C 88.886719 150.175781 88.417969 150 87.246094 150.644531 C 85.3125 151.699219 86.542969 154.746094 87.246094 156.5625 C 89.003906 161.191406 96.328125 169.394531 108.808594 173.496094 C 119.765625 177.070312 146.425781 179.0625 178.652344 166.582031 C 214.863281 152.636719 243.046875 113.789062 234.785156 81.269531 C 226.464844 48.222656 171.679688 37.382812 119.882812 55.78125 C 89.003906 66.738281 55.605469 83.964844 31.582031 106.40625 C 3.046875 133.125 -1.523438 156.386719 0.351562 166.113281 C 7.03125 200.625 54.609375 223.125 73.652344 239.765625 C 72.714844 240.292969 71.835938 240.761719 71.015625 241.230469 C 61.464844 245.976562 25.195312 264.960938 16.113281 285 C 5.859375 307.734375 17.8125 324.023438 25.664062 326.25 C 50.15625 333.046875 75.234375 320.800781 88.710938 300.703125 C 102.1875 280.605469 100.546875 254.355469 94.335938 242.402344 C 94.277344 242.226562 94.160156 242.109375 94.101562 241.933594 C 96.5625 240.46875 99.082031 239.003906 101.601562 237.539062 C 106.464844 234.667969 111.210938 232.03125 115.371094 229.746094 C 113.027344 236.074219 111.328125 243.691406 110.449219 254.707031 C 109.394531 267.597656 114.726562 284.296875 121.640625 290.859375 C 124.6875 293.730469 128.378906 293.789062 130.664062 293.789062 C 138.75 293.789062 142.382812 287.109375 146.425781 279.140625 C 151.40625 269.414062 155.800781 258.105469 155.800781 258.105469 C 155.800781 258.105469 150.292969 288.691406 165.351562 288.691406 C 170.859375 288.691406 176.367188 281.601562 178.828125 277.96875 L 178.828125 278.027344 C 178.828125 278.027344 178.945312 277.792969 179.238281 277.324219 C 179.824219 276.445312 180.117188 275.917969 180.117188 275.917969 L 180.117188 275.742188 C 182.34375 271.933594 187.207031 263.203125 194.53125 248.789062 C 204.023438 230.15625 213.105469 206.894531 213.105469 206.894531 C 213.984375 212.011719 215.195312 217.050781 216.738281 222.011719 C 218.378906 227.578125 221.835938 233.671875 224.589844 239.589844 C 222.363281 242.636719 221.015625 244.394531 221.015625 244.394531 C 221.019531 244.441406 221.039062 244.480469 221.074219 244.511719 C 219.316406 246.855469 217.324219 249.375 215.273438 251.835938 C 207.773438 260.742188 198.867188 270.9375 197.695312 273.867188 C 196.289062 277.324219 196.640625 279.902344 199.335938 281.894531 C 201.328125 283.417969 204.84375 283.652344 208.535156 283.359375 C 215.273438 282.890625 220.019531 281.25 222.304688 280.195312 C 226.539062 278.679688 230.484375 276.609375 234.140625 273.984375 C 241.464844 268.59375 245.917969 260.859375 245.507812 250.664062 C 245.273438 245.039062 243.457031 239.414062 241.230469 234.140625 C 241.875 233.203125 242.578125 232.207031 243.222656 231.210938 C 254.765625 214.277344 263.730469 195.703125 263.730469 195.703125 C 264.609375 200.820312 265.820312 205.859375 267.363281 210.820312 C 268.769531 215.566406 271.523438 220.78125 274.042969 225.878906 C 263.144531 234.726562 256.40625 244.980469 254.0625 251.71875 C 249.726562 264.199219 253.125 269.824219 259.511719 271.113281 C 262.382812 271.699219 266.484375 270.351562 269.53125 269.0625 C 274.085938 267.546875 278.304688 265.378906 282.1875 262.558594 C 289.511719 257.167969 296.601562 249.609375 296.132812 239.355469 C 295.957031 234.726562 294.667969 230.097656 292.96875 225.644531 C 302.167969 221.777344 314.121094 219.667969 329.355469 221.425781 C 361.992188 225.234375 368.378906 245.625 367.148438 254.121094 C 365.917969 262.617188 359.0625 267.363281 356.777344 268.769531 C 354.492188 270.175781 353.789062 270.703125 353.964844 271.757812 C 354.257812 273.28125 355.3125 273.222656 357.246094 272.871094 C 359.941406 272.402344 374.355469 265.957031 375 250.195312 C 375.9375 230.273438 356.777344 208.359375 322.851562 208.535156 Z M 71.308594 293.320312 C 60.527344 305.097656 45.410156 309.550781 38.90625 305.800781 C 31.992188 301.757812 34.746094 284.414062 48.046875 271.875 C 56.132812 264.257812 66.5625 257.226562 73.476562 252.890625 C 75.058594 251.953125 77.34375 250.546875 80.15625 248.847656 C 80.625 248.554688 80.859375 248.4375 80.859375 248.4375 C 81.386719 248.085938 81.972656 247.792969 82.558594 247.441406 C 87.421875 265.253906 82.734375 280.957031 71.367188 293.320312 Z M 150.058594 239.765625 C 146.308594 248.964844 138.398438 272.402344 133.59375 271.171875 C 129.492188 270.117188 126.972656 252.246094 132.773438 234.667969 C 135.703125 225.820312 141.914062 215.273438 145.605469 211.171875 C 151.523438 204.550781 158.027344 202.441406 159.550781 205.078125 C 161.601562 208.535156 152.402344 234.023438 150.058594 239.765625 Z M 215.097656 270.820312 C 213.515625 271.640625 212.050781 272.167969 211.347656 271.757812 C 210.820312 271.464844 211.992188 270.351562 211.992188 270.351562 C 211.992188 270.351562 220.136719 261.621094 223.359375 257.636719 C 225.234375 255.292969 227.402344 252.539062 229.746094 249.492188 C 229.746094 249.785156 229.804688 250.078125 229.804688 250.429688 C 229.746094 260.917969 219.667969 268.007812 215.097656 270.820312 Z M 265.253906 259.394531 C 264.082031 258.574219 264.257812 255.820312 268.183594 247.265625 C 269.707031 243.925781 273.222656 238.300781 279.316406 232.910156 C 280.011719 234.960938 280.382812 237.070312 280.429688 239.238281 C 280.371094 252.421875 270.9375 257.34375 265.253906 259.394531 Z M 265.253906 259.394531 " fill-opacity="1" fill-rule="nonzero"/></svg>