<svg xmlns="http://www.w3.org/2000/svg" xmlns:xlink="http://www.w3.org/1999/xlink" width="500" zoomAndPan="magnify" viewBox="0 0 375 374.999991" height="500" preserveAspectRatio="xMidYMid meet" version="1.0"><path fill="#7b4cee" d="M 367.921875 170.789062 L 204.1875 7.078125 C 203.628906 6.519531 203.042969 5.988281 202.433594 5.484375 C 201.820312 4.984375 201.1875 4.515625 200.527344 4.074219 C 199.871094 3.632812 199.195312 3.226562 198.496094 2.855469 C 197.800781 2.484375 197.085938 2.144531 196.355469 1.84375 C 195.625 1.539062 194.878906 1.273438 194.125 1.042969 C 193.367188 0.8125 192.601562 0.621094 191.824219 0.46875 C 191.046875 0.3125 190.265625 0.195312 189.480469 0.121094 C 188.691406 0.0429688 187.902344 0.00390625 187.113281 0.00390625 C 186.324219 0.00390625 185.535156 0.0429688 184.746094 0.121094 C 183.960938 0.195312 183.179688 0.3125 182.402344 0.46875 C 181.625 0.621094 180.859375 0.8125 180.101562 1.042969 C 179.347656 1.273438 178.601562 1.539062 177.871094 1.84375 C 177.140625 2.144531 176.425781 2.484375 175.730469 2.855469 C 175.03125 3.226562 174.355469 3.632812 173.699219 4.074219 C 173.039062 4.515625 172.40625 4.984375 171.792969 5.484375 C 171.183594 5.988281 170.597656 6.519531 170.039062 7.078125 L 136.054688 41.0625 L 179.179688 84.1875 C 180.445312 83.753906 181.734375 83.414062 183.046875 83.160156 C 184.359375 82.910156 185.683594 82.75 187.019531 82.683594 C 188.355469 82.617188 189.6875 82.644531 191.019531 82.765625 C 192.351562 82.886719 193.667969 83.097656 194.96875 83.402344 C 196.273438 83.707031 197.546875 84.101562 198.792969 84.585938 C 200.039062 85.066406 201.246094 85.632812 202.414062 86.285156 C 203.582031 86.9375 204.699219 87.667969 205.761719 88.476562 C 206.828125 89.285156 207.832031 90.164062 208.773438 91.109375 C 209.71875 92.058594 210.589844 93.070312 211.390625 94.140625 C 212.191406 95.210938 212.914062 96.332031 213.558594 97.503906 C 214.203125 98.671875 214.761719 99.882812 215.238281 101.132812 C 215.710938 102.382812 216.097656 103.660156 216.394531 104.964844 C 216.691406 106.269531 216.894531 107.585938 217.003906 108.917969 C 217.117188 110.25 217.136719 111.585938 217.058594 112.917969 C 216.984375 114.253906 216.816406 115.578125 216.558594 116.890625 C 216.296875 118.199219 215.949219 119.488281 215.507812 120.75 L 257.0625 162.328125 C 258.589844 161.789062 260.148438 161.386719 261.742188 161.113281 C 263.335938 160.839844 264.945312 160.703125 266.5625 160.699219 C 268.179688 160.699219 269.785156 160.832031 271.382812 161.101562 C 272.976562 161.371094 274.539062 161.773438 276.0625 162.308594 C 277.589844 162.84375 279.0625 163.503906 280.476562 164.285156 C 281.894531 165.070312 283.234375 165.964844 284.496094 166.976562 C 285.761719 167.984375 286.929688 169.09375 288.007812 170.300781 C 289.085938 171.511719 290.050781 172.800781 290.910156 174.171875 C 291.769531 175.542969 292.503906 176.976562 293.121094 178.472656 C 293.734375 179.96875 294.222656 181.507812 294.578125 183.085938 C 294.933594 184.664062 295.152344 186.257812 295.238281 187.875 C 295.324219 189.492188 295.273438 191.101562 295.085938 192.707031 C 294.898438 194.316406 294.578125 195.894531 294.121094 197.449219 C 293.667969 199 293.085938 200.503906 292.375 201.957031 C 291.667969 203.414062 290.839844 204.796875 289.898438 206.109375 C 288.957031 207.425781 287.910156 208.652344 286.757812 209.789062 C 286.175781 210.375 285.570312 210.933594 284.941406 211.464844 C 284.3125 211.996094 283.664062 212.503906 282.988281 212.980469 C 282.316406 213.457031 281.625 213.902344 280.914062 214.320312 C 280.203125 214.734375 279.476562 215.121094 278.730469 215.476562 C 277.988281 215.832031 277.226562 216.152344 276.457031 216.441406 C 275.683594 216.730469 274.902344 216.988281 274.109375 217.207031 C 273.3125 217.429688 272.511719 217.617188 271.703125 217.769531 C 270.890625 217.921875 270.078125 218.039062 269.257812 218.121094 C 268.4375 218.207031 267.613281 218.253906 266.789062 218.265625 C 265.964844 218.277344 265.140625 218.253906 264.320312 218.195312 C 263.496094 218.132812 262.679688 218.039062 261.863281 217.910156 C 261.050781 217.78125 260.242188 217.617188 259.445312 217.417969 C 258.644531 217.21875 257.855469 216.988281 257.074219 216.71875 C 256.292969 216.453125 255.527344 216.152344 254.773438 215.820312 C 254.019531 215.488281 253.28125 215.121094 252.558594 214.726562 C 251.835938 214.328125 251.128906 213.902344 250.445312 213.445312 C 249.757812 212.988281 249.09375 212.503906 248.449219 211.988281 C 247.804688 211.472656 247.183594 210.933594 246.585938 210.363281 C 245.988281 209.796875 245.417969 209.203125 244.871094 208.585938 C 244.324219 207.96875 243.804688 207.332031 243.3125 206.667969 C 242.820312 206.007812 242.359375 205.324219 241.925781 204.625 C 241.492188 203.921875 241.089844 203.203125 240.71875 202.46875 C 240.347656 201.730469 240.007812 200.980469 239.703125 200.214844 C 239.394531 199.449219 239.125 198.671875 238.882812 197.886719 C 238.644531 197.097656 238.4375 196.296875 238.269531 195.492188 C 238.097656 194.683594 237.960938 193.875 237.859375 193.054688 C 237.757812 192.238281 237.691406 191.414062 237.664062 190.59375 C 237.632812 189.769531 237.636719 188.945312 237.679688 188.121094 C 237.71875 187.296875 237.792969 186.476562 237.90625 185.660156 C 238.015625 184.84375 238.164062 184.035156 238.34375 183.230469 C 238.523438 182.425781 238.738281 181.628906 238.988281 180.84375 C 239.238281 180.058594 239.519531 179.285156 239.835938 178.523438 L 201.09375 139.757812 L 201.09375 241.78125 C 202.066406 242.261719 203.007812 242.796875 203.921875 243.386719 C 204.835938 243.976562 205.710938 244.613281 206.550781 245.300781 C 207.390625 245.988281 208.1875 246.722656 208.945312 247.5 C 209.703125 248.277344 210.414062 249.097656 211.078125 249.957031 C 211.742188 250.816406 212.355469 251.707031 212.917969 252.636719 C 213.480469 253.566406 213.988281 254.523438 214.445312 255.507812 C 214.898438 256.496094 215.296875 257.503906 215.636719 258.535156 C 215.976562 259.566406 216.257812 260.613281 216.476562 261.675781 C 216.699219 262.738281 216.859375 263.8125 216.960938 264.890625 C 217.058594 265.972656 217.097656 267.058594 217.074219 268.140625 C 217.050781 269.226562 216.96875 270.308594 216.820312 271.382812 C 216.675781 272.460938 216.46875 273.523438 216.203125 274.578125 C 215.9375 275.628906 215.613281 276.664062 215.230469 277.679688 C 214.847656 278.695312 214.40625 279.6875 213.910156 280.652344 C 213.414062 281.617188 212.867188 282.554688 212.265625 283.457031 C 211.664062 284.359375 211.011719 285.226562 210.3125 286.058594 C 209.613281 286.886719 208.867188 287.675781 208.078125 288.421875 C 207.289062 289.167969 206.460938 289.867188 205.59375 290.515625 C 204.722656 291.167969 203.820312 291.769531 202.882812 292.320312 C 201.949219 292.867188 200.984375 293.363281 199.992188 293.800781 C 199 294.242188 197.984375 294.625 196.949219 294.949219 C 195.910156 295.273438 194.859375 295.539062 193.792969 295.746094 C 192.730469 295.953125 191.65625 296.097656 190.570312 296.179688 C 189.488281 296.265625 188.40625 296.289062 187.320312 296.25 C 186.234375 296.210938 185.15625 296.109375 184.082031 295.949219 C 183.007812 295.789062 181.949219 295.566406 180.898438 295.285156 C 179.851562 295.003906 178.820312 294.664062 177.8125 294.265625 C 176.800781 293.867188 175.816406 293.414062 174.859375 292.90625 C 173.898438 292.394531 172.972656 291.832031 172.078125 291.21875 C 171.183594 290.605469 170.324219 289.941406 169.503906 289.226562 C 168.683594 288.515625 167.910156 287.761719 167.175781 286.960938 C 166.441406 286.160156 165.753906 285.320312 165.113281 284.445312 C 164.476562 283.566406 163.886719 282.65625 163.351562 281.710938 C 162.816406 280.765625 162.335938 279.792969 161.910156 278.796875 C 161.484375 277.796875 161.117188 276.777344 160.808594 275.738281 C 160.496094 274.695312 160.246094 273.640625 160.058594 272.570312 C 159.867188 271.503906 159.738281 270.425781 159.667969 269.34375 C 159.601562 268.261719 159.59375 267.175781 159.648438 266.089844 C 159.703125 265.007812 159.816406 263.929688 159.996094 262.859375 C 160.171875 261.785156 160.410156 260.730469 160.703125 259.683594 C 161 258.640625 161.355469 257.617188 161.769531 256.609375 C 162.179688 255.605469 162.648438 254.628906 163.171875 253.679688 C 163.695312 252.726562 164.273438 251.808594 164.898438 250.921875 C 165.527344 250.035156 166.203125 249.1875 166.925781 248.378906 C 167.652344 247.570312 168.417969 246.804688 169.226562 246.082031 C 170.039062 245.359375 170.886719 244.683594 171.773438 244.058594 C 172.660156 243.433594 173.582031 242.859375 174.535156 242.335938 C 175.484375 241.816406 176.464844 241.347656 177.46875 240.9375 L 177.46875 137.976562 C 176.59375 137.617188 175.738281 137.21875 174.902344 136.773438 C 174.066406 136.332031 173.253906 135.847656 172.46875 135.324219 C 171.679688 134.800781 170.921875 134.242188 170.1875 133.644531 C 169.453125 133.042969 168.753906 132.410156 168.082031 131.746094 C 167.414062 131.078125 166.777344 130.378906 166.175781 129.648438 C 165.578125 128.917969 165.011719 128.160156 164.488281 127.375 C 163.960938 126.589844 163.472656 125.777344 163.027344 124.945312 C 162.582031 124.109375 162.179688 123.257812 161.816406 122.382812 C 161.453125 121.507812 161.136719 120.621094 160.863281 119.714844 C 160.589844 118.808594 160.359375 117.894531 160.175781 116.964844 C 159.992188 116.039062 159.855469 115.105469 159.761719 114.164062 C 159.671875 113.222656 159.628906 112.277344 159.628906 111.332031 C 159.632812 110.386719 159.679688 109.441406 159.773438 108.5 C 159.871094 107.5625 160.011719 106.628906 160.199219 105.699219 C 160.386719 104.773438 160.617188 103.859375 160.894531 102.953125 C 161.171875 102.050781 161.492188 101.160156 161.859375 100.289062 L 119.367188 57.773438 L 7.101562 170.039062 C 6.542969 170.597656 6.011719 171.183594 5.507812 171.792969 C 5.007812 172.40625 4.539062 173.039062 4.097656 173.699219 C 3.65625 174.355469 3.25 175.03125 2.878906 175.730469 C 2.507812 176.425781 2.167969 177.140625 1.867188 177.871094 C 1.5625 178.601562 1.296875 179.347656 1.066406 180.101562 C 0.835938 180.859375 0.644531 181.625 0.492188 182.402344 C 0.335938 183.179688 0.21875 183.960938 0.144531 184.746094 C 0.0664062 185.535156 0.0273438 186.324219 0.0273438 187.113281 C 0.0273438 187.902344 0.0664062 188.691406 0.144531 189.480469 C 0.21875 190.265625 0.335938 191.046875 0.492188 191.824219 C 0.644531 192.601562 0.835938 193.367188 1.066406 194.125 C 1.296875 194.878906 1.5625 195.625 1.867188 196.355469 C 2.167969 197.085938 2.507812 197.800781 2.878906 198.496094 C 3.25 199.195312 3.65625 199.871094 4.097656 200.527344 C 4.539062 201.1875 5.007812 201.820312 5.507812 202.433594 C 6.011719 203.042969 6.542969 203.628906 7.101562 204.1875 L 170.835938 367.921875 C 171.394531 368.480469 171.980469 369.011719 172.589844 369.515625 C 173.203125 370.015625 173.835938 370.484375 174.496094 370.925781 C 175.152344 371.367188 175.828125 371.773438 176.527344 372.144531 C 177.222656 372.515625 177.9375 372.855469 178.667969 373.15625 C 179.398438 373.460938 180.144531 373.726562 180.898438 373.957031 C 181.65625 374.1875 182.421875 374.378906 183.199219 374.53125 C 183.976562 374.6875 184.757812 374.804688 185.542969 374.878906 C 186.332031 374.957031 187.121094 374.996094 187.910156 374.996094 C 188.699219 374.996094 189.488281 374.957031 190.277344 374.878906 C 191.0625 374.804688 191.84375 374.6875 192.621094 374.53125 C 193.398438 374.378906 194.164062 374.1875 194.921875 373.957031 C 195.675781 373.726562 196.421875 373.460938 197.152344 373.15625 C 197.882812 372.855469 198.597656 372.515625 199.292969 372.144531 C 199.992188 371.773438 200.667969 371.367188 201.324219 370.925781 C 201.984375 370.484375 202.617188 370.015625 203.230469 369.515625 C 203.839844 369.011719 204.425781 368.480469 204.984375 367.921875 L 367.945312 204.960938 C 368.503906 204.402344 369.035156 203.816406 369.539062 203.207031 C 370.039062 202.59375 370.507812 201.960938 370.949219 201.300781 C 371.390625 200.644531 371.796875 199.96875 372.167969 199.269531 C 372.539062 198.574219 372.878906 197.859375 373.179688 197.128906 C 373.484375 196.398438 373.75 195.652344 373.980469 194.898438 C 374.210938 194.140625 374.402344 193.375 374.554688 192.597656 C 374.710938 191.820312 374.828125 191.039062 374.902344 190.253906 C 374.980469 189.464844 375.019531 188.675781 375.019531 187.886719 C 375.019531 187.097656 374.980469 186.308594 374.902344 185.519531 C 374.828125 184.734375 374.710938 183.953125 374.554688 183.175781 C 374.402344 182.398438 374.210938 181.632812 373.980469 180.875 C 373.75 180.121094 373.484375 179.375 373.179688 178.644531 C 372.878906 177.914062 372.539062 177.199219 372.167969 176.503906 C 371.796875 175.804688 371.390625 175.128906 370.949219 174.472656 C 370.507812 173.8125 370.039062 173.179688 369.539062 172.566406 C 369.035156 171.957031 368.503906 171.371094 367.945312 170.8125 " fill-opacity="1" fill-rule="nonzero"/></svg>