<svg xmlns="http://www.w3.org/2000/svg" xmlns:xlink="http://www.w3.org/1999/xlink" width="500" zoomAndPan="magnify" viewBox="0 0 375 374.999991" height="500" preserveAspectRatio="xMidYMid meet" version="1.0"><path fill="#7b4cee" d="M 297.878906 152.226562 C 297.878906 214.691406 248.355469 265.371094 187.230469 265.371094 C 126.109375 265.371094 76.585938 214.691406 76.585938 152.226562 C 76.585938 89.765625 126.109375 39.082031 187.230469 39.082031 C 248.355469 39.082031 297.878906 89.765625 297.878906 152.226562 " fill-opacity="1" fill-rule="nonzero"/><path fill="#7b4cee" d="M 81.136719 180.246094 C 81.136719 180.246094 73.105469 62.28125 181.878906 58.890625 L 174.292969 46.222656 L 115.3125 66.03125 L 98.449219 85.394531 L 83.722656 113.589844 L 75.335938 146.429688 L 77.835938 168.378906 " fill-opacity="1" fill-rule="nonzero"/><path fill="#231f20" d="M 111.476562 75.042969 C 92.113281 94.941406 80.066406 122.335938 80.066406 152.675781 C 80.066406 183.011719 92.113281 210.40625 111.476562 230.304688 C 130.925781 250.203125 157.609375 262.429688 187.230469 262.429688 C 216.855469 262.429688 243.535156 250.203125 262.988281 230.304688 C 282.351562 210.40625 294.398438 183.011719 294.398438 152.675781 C 294.398438 122.335938 282.351562 94.941406 262.988281 75.042969 C 243.535156 55.234375 216.855469 42.921875 187.230469 42.921875 C 157.695312 42.921875 130.925781 55.144531 111.476562 75.042969 Z M 106.566406 235.035156 C 85.957031 213.976562 73.195312 184.796875 73.195312 152.675781 C 73.195312 120.550781 85.957031 91.371094 106.566406 70.226562 C 127.179688 49.167969 155.734375 36.050781 187.230469 36.050781 C 218.730469 36.050781 247.285156 49.167969 267.898438 70.226562 C 288.507812 91.285156 301.269531 120.460938 301.269531 152.675781 C 301.269531 184.796875 288.507812 213.976562 267.898438 235.035156 C 247.285156 256.183594 218.730469 269.210938 187.230469 269.210938 C 155.734375 269.210938 127.179688 256.183594 106.566406 235.035156 Z M 106.566406 235.035156 " fill-opacity="1" fill-rule="nonzero"/><path fill="#f0d6b7" d="M 233.8125 152.851562 L 216.945312 155.351562 L 194.191406 157.9375 L 179.46875 158.296875 L 165.101562 157.847656 L 154.128906 154.457031 L 144.402344 143.929688 L 136.816406 122.425781 L 135.121094 117.785156 L 125.039062 114.394531 L 119.148438 104.667969 L 114.957031 90.746094 L 119.59375 78.523438 L 130.570312 74.6875 L 139.40625 78.878906 L 143.597656 88.160156 L 148.683594 87.355469 L 150.378906 85.214844 L 148.683594 75.488281 L 148.238281 63.265625 L 150.738281 46.398438 L 150.648438 36.761719 L 158.320312 24.449219 L 171.796875 14.722656 L 195.351562 4.640625 L 221.496094 8.476562 L 244.25 24.894531 L 254.78125 41.761719 L 261.5625 53.984375 L 263.257812 84.324219 L 258.171875 110.46875 L 248.890625 133.667969 L 240.144531 146.070312 " fill-opacity="1" fill-rule="nonzero"/><path fill="#7b4cee" d="M 219.535156 225.753906 L 159.304688 228.253906 L 159.304688 238.335938 L 164.390625 273.761719 L 161.890625 276.707031 L 119.773438 262.339844 L 116.828125 257.253906 L 112.636719 209.601562 L 102.730469 181.050781 L 100.589844 174.269531 L 134.316406 151.066406 L 144.847656 146.875 L 154.128906 158.296875 L 162.160156 165.433594 L 171.4375 168.378906 L 175.632812 169.628906 L 180.71875 191.578125 L 184.554688 196.21875 L 194.28125 192.828125 L 187.5 205.945312 L 224.085938 223.253906 L 219.535156 225.753906 " fill-opacity="1" fill-rule="nonzero"/><path fill="#6d6b6d" d="M 119.59375 78.703125 L 130.570312 74.863281 L 139.40625 79.058594 L 143.597656 88.339844 L 148.683594 87.535156 L 149.933594 82.449219 L 147.433594 72.722656 L 149.933594 49.523438 L 147.792969 36.851562 L 155.375 28.019531 L 171.796875 14.992188 L 167.15625 8.65625 L 143.957031 20.078125 L 134.230469 27.660156 L 128.785156 39.441406 L 120.398438 50.863281 L 117.898438 64.335938 L 119.59375 78.703125 " fill-opacity="1" fill-rule="nonzero"/><path fill="#dcd9d8" d="M 136.90625 39.082031 C 136.90625 39.082031 143.242188 23.46875 168.492188 15.882812 C 193.746094 8.296875 169.742188 10.441406 169.742188 10.441406 L 142.347656 20.96875 L 131.820312 31.5 L 127.179688 39.886719 L 136.90625 39.082031 " fill-opacity="1" fill-rule="nonzero"/><path fill="#dcd9d8" d="M 124.234375 75.757812 C 124.234375 75.757812 115.402344 46.222656 149.128906 42.027344 L 147.882812 36.941406 L 124.679688 42.382812 L 117.898438 64.335938 L 119.59375 78.703125 L 124.234375 75.757812 " fill-opacity="1" fill-rule="nonzero"/><path fill="#f7e4cd" d="M 137.710938 114.929688 L 143.242188 109.574219 C 143.242188 109.574219 145.738281 109.84375 146.1875 112.789062 C 146.632812 115.734375 147.882812 142.324219 165.996094 156.601562 C 167.691406 157.9375 152.519531 154.457031 152.519531 154.457031 L 139.046875 133.398438 " fill-opacity="1" fill-rule="nonzero"/><path fill="#f7e4cd" d="M 215.25 106.898438 C 215.25 106.898438 216.230469 94.136719 219.710938 95.121094 C 223.191406 96.101562 223.191406 99.582031 223.191406 99.582031 C 223.191406 99.582031 214.804688 104.9375 215.25 106.898438 " fill-opacity="1" fill-rule="nonzero"/><path fill="#f7e4cd" d="M 250.230469 60.140625 C 250.230469 60.140625 243.269531 61.570312 242.644531 67.726562 C 242.019531 73.882812 250.230469 68.976562 251.480469 68.53125 " fill-opacity="1" fill-rule="nonzero"/><path fill="#f7e4cd" d="M 199.277344 60.585938 C 199.277344 60.585938 190 61.835938 190 67.726562 C 190 73.617188 200.527344 73.167969 203.472656 70.671875 " fill-opacity="1" fill-rule="nonzero"/><path fill="#f7e4cd" d="M 141.992188 87.980469 C 141.992188 87.980469 126.019531 78.253906 124.324219 87.535156 C 122.628906 96.816406 118.882812 103.507812 126.824219 113.234375 L 121.378906 111.539062 L 116.292969 98.511719 L 114.597656 85.839844 L 124.324219 75.757812 L 135.300781 76.558594 L 141.636719 81.644531 L 141.992188 87.980469 " fill-opacity="1" fill-rule="nonzero"/><path fill="#f7e4cd" d="M 149.578125 61.390625 C 149.578125 61.390625 156.714844 24.269531 192.941406 17.132812 C 222.746094 11.242188 238.449219 18.382812 244.339844 25.164062 C 244.339844 25.164062 217.75 -6.425781 192.496094 3.210938 C 167.246094 12.9375 148.683594 30.605469 149.128906 41.9375 C 149.84375 61.390625 149.578125 61.390625 149.578125 61.390625 " fill-opacity="1" fill-rule="nonzero"/><path fill="#f7e4cd" d="M 247.285156 29.355469 C 247.285156 29.355469 235.058594 28.910156 234.613281 39.886719 C 234.613281 39.886719 234.613281 41.582031 235.417969 43.277344 C 235.417969 43.277344 245.144531 32.300781 251.03125 38.191406 " fill-opacity="1" fill-rule="nonzero"/><path fill="#f7e4cd" d="M 193.835938 44.4375 C 193.835938 44.4375 191.695312 27.660156 177.417969 37.386719 C 168.136719 43.722656 169.027344 52.558594 170.636719 54.253906 C 172.332031 55.949219 171.882812 59.339844 173.132812 57.019531 C 174.382812 54.699219 174.027344 47.113281 178.667969 44.972656 C 183.21875 42.832031 190.890625 40.511719 193.835938 44.4375 " fill-opacity="1" fill-rule="nonzero"/><path fill="#7b4cee" d="M 154.21875 158.296875 L 114.597656 175.964844 C 114.597656 175.964844 131.015625 241.28125 122.628906 261.535156 L 116.738281 259.394531 L 116.292969 234.5 L 105.316406 187.386719 L 100.679688 174.355469 L 141.992188 146.515625 L 154.21875 158.296875 " fill-opacity="1" fill-rule="nonzero"/><path fill="#7b4cee" d="M 158.230469 194.433594 L 163.855469 201.304688 L 163.855469 226.558594 L 157.160156 226.558594 C 157.160156 226.558594 156.359375 208.890625 156.359375 206.75 C 156.359375 204.605469 157.160156 197.023438 157.160156 197.023438 " fill-opacity="1" fill-rule="nonzero"/><path fill="#7b4cee" d="M 158.410156 230.394531 L 139.40625 231.199219 L 144.847656 235.035156 L 158.320312 237.175781 " fill-opacity="1" fill-rule="nonzero"/><path fill="#7b4cee" d="M 223.28125 226.199219 L 238.898438 225.753906 L 242.734375 264.480469 L 226.761719 266.621094 L 223.28125 226.199219 " fill-opacity="1" fill-rule="nonzero"/><path fill="#7b4cee" d="M 227.476562 226.199219 L 251.03125 224.953125 C 251.03125 224.953125 260.757812 200.5 260.757812 199.253906 C 260.757812 198.003906 269.144531 163.828125 269.144531 163.828125 L 250.140625 144.019531 L 246.304688 140.628906 L 236.21875 150.710938 L 236.21875 189.882812 L 227.476562 226.199219 " fill-opacity="1" fill-rule="nonzero"/><path fill="#7b4cee" d="M 238.003906 223.253906 L 223.28125 226.199219 L 225.421875 237.980469 C 230.867188 240.476562 240.144531 233.785156 240.144531 233.785156 " fill-opacity="1" fill-rule="nonzero"/><path fill="#7b4cee" d="M 238.449219 149.460938 L 267.984375 171.414062 L 268.789062 161.328125 L 246.480469 140.71875 L 238.449219 149.460938 " fill-opacity="1" fill-rule="nonzero"/><path fill="#ffffff" d="M 173.042969 309.183594 L 164.300781 273.761719 L 159.925781 247.617188 L 159.214844 228.253906 L 198.742188 226.109375 L 223.28125 226.109375 L 221.050781 270.371094 L 224.886719 304.546875 L 224.441406 310.878906 L 192.40625 313.378906 L 173.042969 309.183594 " fill-opacity="1" fill-rule="nonzero"/><path fill="#dcd9d8" d="M 217.839844 225.753906 C 217.839844 225.753906 215.695312 269.566406 222.03125 300.796875 C 222.03125 300.796875 209.363281 308.828125 190.890625 310.878906 L 226.316406 309.632812 L 230.507812 307.132812 L 225.421875 238.066406 L 224.085938 223.253906 " fill-opacity="1" fill-rule="nonzero"/><path fill="#ffffff" d="M 243.359375 261.179688 L 259.777344 256.539062 L 290.917969 254.84375 L 295.558594 240.476562 L 287.171875 215.582031 L 277.445312 214.332031 L 263.972656 218.527344 L 251.121094 224.863281 L 244.25 223.613281 L 238.898438 225.753906 " fill-opacity="1" fill-rule="nonzero"/><path fill="#dcd9d8" d="M 243.089844 252.703125 C 243.089844 252.703125 254.066406 247.617188 255.761719 248.0625 L 251.121094 224.863281 L 256.566406 222.71875 C 256.566406 222.71875 260.402344 244.671875 260.402344 247.167969 C 260.402344 247.167969 283.957031 248.417969 286.101562 248.417969 C 286.101562 248.417969 291.1875 238.691406 289.9375 228.609375 L 294.578125 242.082031 L 295.023438 249.667969 L 288.242188 259.75 L 280.65625 261.445312 L 267.984375 261 L 263.792969 255.558594 L 249.070312 257.699219 L 244.429688 259.394531 " fill-opacity="1" fill-rule="nonzero"/><path fill="#ffffff" d="M 226.492188 222.808594 L 217.214844 199.253906 L 207.488281 185.332031 C 207.488281 185.332031 209.628906 179.445312 212.574219 179.445312 L 222.300781 179.445312 L 231.582031 182.835938 L 230.777344 198.449219 L 226.492188 222.808594 " fill-opacity="1" fill-rule="nonzero"/><path fill="#dcd9d8" d="M 228.367188 214.777344 C 228.367188 214.777344 216.589844 192.023438 216.589844 188.632812 C 216.589844 188.632812 218.730469 183.546875 221.675781 184.796875 C 224.621094 186.046875 230.957031 189.4375 230.957031 189.4375 L 230.957031 181.40625 L 216.589844 178.460938 L 206.863281 179.710938 L 223.28125 218.617188 L 226.671875 219.0625 " fill-opacity="1" fill-rule="nonzero"/><path fill="#ffffff" d="M 176.792969 159.1875 L 165.101562 157.9375 L 154.128906 154.546875 L 154.128906 158.386719 L 159.480469 164.273438 L 176.347656 171.859375 " fill-opacity="1" fill-rule="nonzero"/><path fill="#dcd9d8" d="M 157.964844 160.4375 C 157.964844 160.4375 170.992188 165.878906 175.273438 164.632812 L 175.722656 169.71875 L 163.941406 167.21875 L 156.804688 162.132812 L 157.964844 160.4375 " fill-opacity="1" fill-rule="nonzero"/><path fill="#7b4cee" d="M 243.359375 180.871094 C 236.21875 180.691406 229.707031 179.800781 224.085938 178.195312 C 224.441406 175.875 223.726562 173.644531 224.351562 171.949219 C 225.957031 170.789062 228.546875 170.789062 230.957031 170.519531 C 228.902344 169.539062 225.957031 169.09375 223.636719 169.71875 C 223.550781 168.109375 222.835938 167.128906 222.390625 165.878906 C 226.40625 164.453125 235.863281 155.082031 241.21875 158.117188 C 243.804688 159.632812 244.875 168.023438 245.054688 172.214844 C 245.230469 175.605469 244.695312 178.996094 243.359375 180.871094 " fill-opacity="1" fill-rule="nonzero"/><path stroke-linecap="butt" transform="matrix(0.899281, 0, 0, 0.899281, 72.392088, 0)" fill-opacity="1" fill="#000000" fill-rule="nonzero" stroke-linejoin="miter" d="M 190.115636 201.128669 C 182.17526 200.928857 174.934229 199.938482 168.683572 198.1532 C 169.078853 195.573013 168.283947 193.092731 168.978947 191.207544 C 170.764228 189.91745 173.644135 189.91745 176.324229 189.617731 C 174.039416 188.52745 170.764228 188.032262 168.184041 188.727262 C 168.088478 186.937637 167.293572 185.847356 166.798384 184.457356 C 171.26376 182.871887 181.779979 172.45123 187.735261 175.826324 C 190.610823 177.511699 191.801011 186.842075 192.000823 191.502919 C 192.196292 195.273294 191.601198 199.043669 190.115636 201.128669 Z M 190.115636 201.128669 " stroke="#7b4cee" stroke-width="2" stroke-opacity="1" stroke-miterlimit="4"/><path fill="#7b4cee" d="M 209.183594 169.183594 C 209.183594 169.71875 209.183594 170.253906 209.09375 170.789062 C 206.863281 172.214844 203.292969 172.214844 200.796875 173.464844 C 204.363281 173.644531 207.21875 174.535156 209.71875 175.695312 C 209.628906 177.035156 209.628906 178.460938 209.539062 179.800781 C 205.433594 182.566406 201.6875 186.761719 196.871094 189.4375 C 194.550781 190.6875 186.609375 193.898438 184.199219 193.273438 C 182.859375 192.917969 182.679688 191.222656 182.144531 189.617188 C 180.984375 186.226562 178.308594 180.691406 178.042969 175.515625 C 177.773438 169.003906 177.058594 158.027344 184.109375 159.367188 C 189.820312 160.4375 196.421875 163.023438 200.796875 165.433594 C 203.5625 167.039062 205.078125 168.824219 209.183594 169.183594 " fill-opacity="1" fill-rule="nonzero"/><path stroke-linecap="butt" transform="matrix(0.899281, 0, 0, 0.899281, 72.392088, 0)" fill-opacity="1" fill="#000000" fill-rule="nonzero" stroke-linejoin="miter" d="M 152.112165 188.132169 C 152.112165 188.727262 152.112165 189.322356 152.012258 189.91745 C 149.531977 191.502919 145.561789 191.502919 142.786133 192.892919 C 146.751977 193.092731 149.927258 194.083106 152.707258 195.3732 C 152.607352 196.863107 152.607352 198.448575 152.507446 199.938482 C 147.942164 203.013857 143.776508 207.679045 138.420664 210.654514 C 135.840476 212.044514 127.009632 215.615077 124.329538 214.920077 C 122.839631 214.524795 122.639819 212.639608 122.044725 210.854326 C 120.754631 207.083951 117.779162 200.928857 117.483787 195.173388 C 117.184069 187.932356 116.389162 175.726418 124.229632 177.216324 C 130.580194 178.406512 137.921132 181.282074 142.786133 183.962168 C 145.861508 185.74745 147.546883 187.732543 152.112165 188.132169 Z M 152.112165 188.132169 " stroke="#7b4cee" stroke-width="2" stroke-opacity="1" stroke-miterlimit="4"/><path fill="#7b4cee" d="M 213.199219 176.945312 C 212.574219 173.375 211.859375 172.394531 212.128906 169.269531 C 221.675781 162.9375 223.371094 180.15625 213.199219 176.945312 " fill-opacity="1" fill-rule="nonzero"/><path stroke-linecap="butt" transform="matrix(0.899281, 0, 0, 0.899281, 72.392088, 0)" fill-opacity="1" fill="#000000" fill-rule="nonzero" stroke-linejoin="miter" d="M 156.57754 196.7632 C 155.88254 192.793013 155.087634 191.702731 155.387352 188.227731 C 166.003478 181.186512 167.888666 200.333763 156.57754 196.7632 Z M 156.57754 196.7632 " stroke="#7b4cee" stroke-width="2" stroke-opacity="1" stroke-miterlimit="4"/><path fill="#7b4cee" d="M 226.941406 179.800781 C 226.941406 179.800781 223.996094 175.605469 226.136719 174.355469 C 228.277344 173.109375 230.332031 174.355469 231.582031 172.214844 C 232.828125 170.074219 231.582031 168.824219 232.027344 166.328125 C 232.472656 163.828125 234.523438 163.382812 236.667969 162.9375 C 238.808594 162.488281 244.695312 161.6875 245.5 163.738281 L 243 156.152344 L 237.914062 154.457031 L 221.941406 163.738281 L 221.140625 168.378906 L 221.140625 177.660156 " fill-opacity="1" fill-rule="nonzero"/><path fill="#7b4cee" d="M 182.679688 193.71875 C 182.144531 187.117188 181.609375 180.601562 181.074219 174 C 180.183594 164.183594 183.394531 165.878906 191.960938 165.878906 C 193.300781 165.878906 199.992188 167.398438 200.4375 168.378906 C 202.757812 173.109375 196.601562 172.039062 203.117188 175.605469 C 208.558594 178.550781 218.285156 173.820312 216.054688 167.128906 C 214.804688 165.613281 209.628906 166.683594 207.753906 165.703125 C 204.453125 164.007812 201.152344 162.3125 197.851562 160.617188 C 193.65625 158.472656 184.019531 155.261719 179.558594 158.296875 C 168.226562 165.96875 180.273438 185.242188 184.289062 193.273438 " fill-opacity="1" fill-rule="nonzero"/><path fill="#231f20" d="M 193.835938 44.4375 C 182.324219 41.761719 176.613281 49.253906 173.132812 57.019531 C 170.011719 56.304688 171.261719 52.023438 172.0625 49.878906 C 174.117188 44.257812 182.414062 36.675781 189.195312 37.746094 C 192.050781 38.101562 195.976562 40.777344 193.835938 44.4375 " fill-opacity="1" fill-rule="nonzero"/><path fill="#231f20" d="M 249.78125 57.464844 L 250.320312 57.464844 C 252.90625 62.820312 255.136719 68.53125 258.4375 73.347656 C 256.207031 78.523438 241.839844 82.984375 242.019531 73.882812 C 245.144531 72.542969 250.496094 73.617188 253.261719 71.832031 C 251.65625 67.457031 249.425781 63.710938 249.78125 57.464844 " fill-opacity="1" fill-rule="nonzero"/><path fill="#231f20" d="M 199.636719 57.644531 C 202.132812 62.195312 202.9375 66.921875 206.417969 70.3125 C 208.023438 71.832031 211.058594 73.703125 209.539062 77.988281 C 209.183594 78.96875 206.59375 81.199219 205.078125 81.644531 C 199.636719 83.253906 186.875 82.003906 191.160156 75.132812 C 195.710938 75.3125 201.777344 78.078125 205.167969 74.777344 C 202.578125 70.671875 197.941406 62.460938 199.636719 57.644531 " fill-opacity="1" fill-rule="nonzero"/><path fill="#231f20" d="M 247.730469 103.507812 C 239.523438 108.773438 230.332031 114.574219 216.769531 113.234375 C 213.914062 110.734375 212.753906 105.113281 215.609375 101.457031 C 217.035156 103.953125 216.144531 108.59375 220.246094 109.308594 C 227.921875 110.644531 236.84375 104.578125 242.378906 102.527344 C 245.769531 96.726562 242.109375 94.675781 238.984375 90.925781 C 232.652344 83.339844 224.261719 73.882812 224.53125 62.550781 C 227.117188 60.675781 227.296875 65.40625 227.652344 66.210938 C 230.957031 73.882812 239.253906 83.789062 245.230469 90.390625 C 246.75 91.996094 249.160156 93.601562 249.425781 94.675781 C 250.230469 97.707031 247.375 101.457031 247.730469 103.507812 " fill-opacity="1" fill-rule="nonzero"/><path fill="#231f20" d="M 139.046875 97.976562 C 136.460938 96.457031 135.835938 90.035156 132.800781 89.855469 C 128.429688 89.585938 129.230469 98.242188 129.230469 103.328125 C 126.289062 100.652344 125.753906 92.265625 127.894531 87.980469 C 125.394531 86.734375 124.324219 89.320312 122.898438 90.210938 C 124.769531 77.273438 141.902344 84.234375 139.046875 97.976562 " fill-opacity="1" fill-rule="nonzero"/><path fill="#231f20" d="M 252.90625 108.949219 C 249.070312 116.269531 243.625 124.296875 232.382812 124.566406 C 232.117188 122.246094 231.9375 118.589844 232.382812 117.160156 C 241.039062 116.269531 246.390625 111.894531 252.90625 108.949219 " fill-opacity="1" fill-rule="nonzero"/><path fill="#231f20" d="M 199.011719 113.679688 C 206.148438 117.429688 219.355469 117.875 229.171875 117.605469 C 229.707031 119.746094 229.707031 122.425781 229.707031 125.011719 C 217.125 125.546875 202.3125 122.425781 199.011719 113.679688 " fill-opacity="1" fill-rule="nonzero"/><path fill="#231f20" d="M 197.671875 120.640625 C 202.667969 133.132812 219.710938 131.703125 234.078125 131.347656 C 233.453125 132.953125 232.117188 134.917969 230.332031 135.542969 C 225.691406 137.414062 213.019531 138.84375 206.59375 135.453125 C 202.578125 133.3125 199.902344 128.402344 197.671875 125.546875 C 196.691406 124.210938 191.335938 120.730469 197.671875 120.640625 " fill-opacity="1" fill-rule="nonzero"/><path fill="#7b4cee" d="M 247.105469 189.4375 C 241.304688 199.429688 235.683594 209.691406 228.8125 218.4375 C 231.667969 209.960938 232.917969 195.683594 233.363281 184.796875 C 239.433594 181.941406 244.609375 185.421875 247.105469 189.4375 " fill-opacity="1" fill-rule="nonzero"/><path fill="#231f20" d="M 278.425781 225.308594 C 271.914062 226.648438 267.363281 232.980469 260.9375 232.535156 C 264.507812 227.628906 270.574219 225.488281 278.425781 225.308594 " fill-opacity="1" fill-rule="nonzero"/><path fill="#231f20" d="M 281.28125 235.480469 C 275.929688 236.015625 269.683594 236.90625 264.328125 236.460938 C 266.914062 232.535156 276.730469 233.964844 281.28125 235.480469 " fill-opacity="1" fill-rule="nonzero"/><path fill="#231f20" d="M 283.15625 244.3125 C 277.175781 244.402344 269.769531 244.3125 264.058594 243.867188 C 267.449219 240.210938 279.320312 242.53125 283.15625 244.3125 " fill-opacity="1" fill-rule="nonzero"/><path fill="#dcd9d8" d="M 235.863281 268.40625 C 236.753906 275.902344 239.699219 283.488281 239.34375 291.695312 C 236.042969 292.765625 234.167969 293.75 229.707031 293.75 C 229.4375 286.789062 228.457031 276.082031 228.726562 269.386719 C 230.867188 269.566406 234.078125 267.871094 235.863281 268.40625 " fill-opacity="1" fill-rule="nonzero"/><path fill="#f0d6b7" d="M 226.226562 157.761719 C 223.191406 159.722656 220.695312 162.132812 217.75 164.273438 C 211.324219 164.632812 207.84375 163.828125 203.203125 160.167969 C 203.292969 159.902344 203.738281 159.992188 203.738281 159.632812 C 210.609375 162.667969 219.355469 158.386719 226.226562 157.761719 " fill-opacity="1" fill-rule="nonzero"/><path fill="#7b4cee" d="M 190.355469 204.429688 C 192.230469 196.308594 199.636719 192.023438 206.328125 187.5625 C 213.199219 196.308594 217.390625 207.550781 222.03125 218.4375 C 211.058594 215.136719 199.902344 209.871094 190.355469 204.429688 " fill-opacity="1" fill-rule="nonzero"/><path fill="#231f20" d="M 228.726562 269.476562 C 228.457031 276.167969 229.347656 286.789062 229.707031 293.835938 C 234.167969 293.835938 236.042969 292.855469 239.34375 291.785156 C 239.699219 283.574219 236.753906 275.992188 235.863281 268.496094 C 234.078125 267.871094 230.867188 269.566406 228.726562 269.476562 Z M 159.839844 231.644531 C 162.78125 258.503906 166.976562 280.988281 174.738281 304.8125 C 191.960938 310.078125 212.664062 310.523438 227.921875 305.792969 C 225.15625 292.410156 226.316406 276.082031 224.710938 261.714844 C 223.460938 250.917969 224.085938 240.121094 222.390625 229.144531 C 203.917969 225.308594 177.863281 228.253906 159.839844 231.644531 Z M 226.761719 229.324219 C 226.582031 240.835938 227.296875 252.253906 228.1875 263.765625 C 232.652344 263.140625 235.59375 262.695312 239.699219 261.714844 C 238.363281 250.648438 238.539062 238.066406 235.773438 228.253906 C 232.652344 228.34375 229.882812 228.253906 226.761719 229.324219 Z M 249.160156 227.449219 C 247.015625 227.003906 244.609375 227.449219 242.644531 227.449219 C 243.625 236.820312 245.855469 247.167969 246.660156 257.074219 C 249.78125 257.164062 251.480469 255.648438 254.066406 255.199219 C 254.246094 246.546875 253.351562 234.589844 249.160156 227.449219 Z M 283.15625 258.503906 C 289.757812 256.894531 293.863281 248.863281 291.988281 240.566406 C 290.738281 235.035156 288.597656 224.503906 286.1875 220.9375 C 284.492188 218.347656 279.765625 214.867188 275.929688 217.277344 C 269.769531 221.203125 258.972656 222.363281 254.511719 227.09375 C 256.742188 234.589844 257.457031 244.761719 258.347656 254.21875 C 266.023438 254.664062 275.390625 252.078125 281.816406 254.84375 C 277.355469 256.269531 271.644531 256.269531 267.808594 258.414062 C 271.019531 259.929688 278.335938 259.660156 283.15625 258.503906 Z M 221.941406 218.4375 C 217.304688 207.550781 213.109375 196.308594 206.238281 187.5625 C 199.546875 192.023438 192.230469 196.308594 190.265625 204.429688 C 199.902344 209.871094 211.058594 215.136719 221.941406 218.4375 Z M 233.363281 184.796875 C 232.917969 195.683594 231.667969 209.960938 228.8125 218.4375 C 235.683594 209.601562 241.304688 199.429688 247.105469 189.4375 C 244.609375 185.421875 239.433594 181.941406 233.363281 184.796875 Z M 220.425781 180.246094 C 217.839844 179.980469 215.609375 183.28125 212.21875 181.851562 C 211.414062 182.746094 210.699219 183.636719 209.898438 184.53125 C 217.390625 193.632812 220.871094 206.480469 226.671875 217.097656 C 229.796875 206.835938 229.4375 195.683594 230.152344 184.53125 C 225.871094 184.707031 223.460938 180.515625 220.425781 180.246094 Z M 212.128906 169.269531 C 211.859375 172.394531 212.574219 173.375 213.199219 176.945312 C 223.371094 180.15625 221.675781 162.9375 212.128906 169.269531 Z M 200.796875 165.523438 C 196.421875 163.113281 189.820312 160.527344 184.109375 159.457031 C 177.058594 158.117188 177.773438 169.09375 178.042969 175.605469 C 178.308594 180.78125 180.984375 186.226562 182.144531 189.703125 C 182.679688 191.3125 182.859375 193.007812 184.199219 193.363281 C 186.609375 193.898438 194.636719 190.777344 196.871094 189.527344 C 201.6875 186.9375 205.433594 182.746094 209.539062 179.890625 C 209.628906 178.550781 209.628906 177.125 209.71875 175.785156 C 207.21875 174.535156 204.453125 173.734375 200.796875 173.554688 C 203.203125 172.304688 206.863281 172.304688 209.09375 170.878906 C 209.09375 170.34375 209.09375 169.804688 209.183594 169.269531 C 205.078125 168.824219 203.5625 167.039062 200.796875 165.523438 Z M 158.855469 157.9375 C 155.199219 161.6875 169.117188 166.683594 173.492188 166.949219 C 173.492188 164.632812 174.828125 162.398438 174.5625 160.703125 C 169.296875 159.8125 162.425781 160.4375 158.855469 157.9375 Z M 203.828125 159.632812 C 203.828125 159.992188 203.382812 159.902344 203.292969 160.167969 C 208.023438 163.828125 211.503906 164.632812 217.839844 164.273438 C 220.695312 162.222656 223.28125 159.722656 226.316406 157.761719 C 219.355469 158.386719 210.609375 162.667969 203.828125 159.632812 Z M 245.054688 172.125 C 244.875 168.023438 243.804688 159.542969 241.21875 158.027344 C 235.863281 154.90625 226.40625 164.363281 222.390625 165.792969 C 222.835938 167.039062 223.550781 168.023438 223.636719 169.628906 C 226.046875 169.003906 228.902344 169.449219 230.957031 170.429688 C 228.546875 170.699219 225.957031 170.699219 224.351562 171.859375 C 223.816406 173.554688 224.53125 175.785156 224.085938 178.105469 C 229.707031 179.710938 236.21875 180.515625 243.359375 180.78125 C 244.695312 178.996094 245.230469 175.605469 245.054688 172.125 Z M 152.699219 161.507812 C 151.539062 160.703125 143.777344 150.621094 142.707031 151.066406 C 128.695312 156.601562 115.578125 166.148438 103.890625 175.25 C 115.042969 199.253906 119.59375 228.609375 120.398438 256.894531 C 133.160156 262.875 144.402344 271.53125 161.800781 272.421875 C 159.75 258.234375 157.964844 245.472656 156.804688 232.089844 C 152.433594 230.214844 146.1875 232.179688 142.082031 231.554688 C 142.082031 226.648438 148.328125 229.414062 148.863281 226.109375 C 149.21875 223.613281 145.382812 223.433594 146.632812 219.507812 C 149.84375 220.667969 151.539062 223.253906 154.929688 224.238281 C 158.054688 217.457031 154.929688 205.410156 155.375 199.699219 C 155.464844 198.628906 155.914062 193.808594 158.320312 194.613281 C 160.464844 195.328125 158.230469 207.550781 158.410156 212.90625 C 158.589844 217.902344 157.785156 222.632812 159.839844 225.753906 C 176.613281 223.433594 193.65625 222.007812 211.859375 221.472656 C 207.84375 219.777344 203.117188 218.167969 197.941406 215.226562 C 195.085938 213.617188 186.25 210.316406 185.449219 207.640625 C 184.109375 203.355469 188.839844 201.125 189.640625 197.46875 C 181.164062 202.109375 179.558594 193.007812 177.507812 186.671875 C 175.722656 180.871094 174.652344 176.5 174.203125 173.195312 C 166.796875 169.449219 158.945312 165.96875 152.699219 161.507812 Z M 237.648438 152.226562 C 249.335938 146.605469 251.480469 173.375 246.839844 182.03125 C 247.550781 184.617188 249.960938 185.601562 250.941406 187.921875 C 244.429688 199.609375 237.203125 210.496094 230.507812 222.007812 C 235.417969 218.882812 242.554688 221.472656 248.355469 219.152344 C 250.496094 218.347656 252.015625 213.441406 253.621094 209.515625 C 258.082031 198.804688 262.722656 185.242188 264.773438 175.070312 C 265.21875 172.75 266.558594 167.664062 266.203125 165.613281 C 265.667969 161.863281 260.667969 159.097656 258.082031 156.867188 C 253.351562 152.585938 250.40625 148.925781 245.410156 144.910156 C 243.535156 147.855469 239.253906 149.820312 237.648438 152.226562 Z M 126.019531 48.628906 C 120.488281 54.789062 121.648438 66.210938 122.273438 74.417969 C 132.355469 68.082031 145.652344 74.953125 145.5625 85.660156 C 150.378906 85.574219 147.347656 79.683594 146.453125 75.847656 C 143.597656 63.441406 151.273438 50.058594 146.8125 38.726562 C 138.15625 39.441406 131.105469 42.921875 126.019531 48.628906 Z M 165.816406 13.027344 C 153.234375 16.597656 137.085938 25.789062 131.910156 37.121094 C 135.925781 36.496094 138.691406 34.53125 142.617188 34.265625 C 144.132812 34.175781 146.097656 34.890625 147.792969 34.441406 C 151.183594 33.550781 154.128906 25.878906 156.714844 23.023438 C 159.214844 20.253906 162.246094 19.007812 164.300781 16.507812 C 165.636719 15.882812 167.601562 15.882812 167.691406 13.921875 C 167.15625 13.296875 166.53125 12.847656 165.816406 13.027344 Z M 231.402344 16.417969 C 218.285156 9.011719 196.15625 3.480469 182.234375 10.441406 C 170.992188 16.0625 155.824219 25.339844 150.648438 37.03125 C 155.464844 48.363281 149.21875 58.714844 148.773438 70.226562 C 148.59375 76.382812 151.628906 81.644531 151.898438 88.339844 C 150.203125 91.105469 145.203125 91.371094 141.722656 91.195312 C 140.566406 85.304688 138.511719 78.703125 132.445312 77.988281 C 123.878906 77.007812 117.542969 84.144531 117.1875 91.550781 C 116.738281 100.296875 123.878906 114.75 134.050781 113.769531 C 137.976562 113.414062 138.957031 109.488281 143.242188 109.488281 C 145.5625 114.125 139.671875 115.554688 139.046875 118.855469 C 138.867188 119.746094 139.492188 123.050781 139.941406 124.65625 C 141.8125 132.242188 145.917969 142.144531 149.933594 147.945312 C 155.109375 155.351562 165.191406 156.421875 176.078125 157.136719 C 178.042969 152.941406 185.179688 153.296875 189.820312 154.371094 C 184.199219 152.140625 179.023438 146.785156 174.738281 142.054688 C 169.832031 136.613281 164.835938 130.8125 164.566406 123.675781 C 173.9375 136.613281 181.609375 147.945312 198.566406 153.65625 C 211.414062 157.9375 226.40625 151.691406 236.308594 144.734375 C 240.414062 141.878906 242.824219 137.238281 245.769531 133.132812 C 256.652344 117.429688 261.738281 95.121094 260.667969 73.4375 C 260.222656 64.515625 260.222656 55.589844 257.1875 49.613281 C 254.066406 43.367188 243.449219 37.65625 237.203125 43.367188 C 236.042969 37.210938 242.378906 33.460938 249.78125 35.691406 C 244.519531 28.820312 238.984375 20.703125 231.402344 16.417969 Z M 255.851562 218.167969 C 266.113281 213.082031 285.207031 204.515625 291.542969 218.167969 C 293.953125 223.253906 296.71875 231.734375 297.878906 236.996094 C 299.574219 244.3125 296.003906 259.839844 288.421875 262.25 C 281.726562 264.390625 273.964844 264.300781 265.933594 262.695312 C 264.953125 261.894531 263.972656 260.554688 263.167969 259.125 C 257.457031 258.949219 252.015625 259.394531 247.550781 261.804688 C 248 266.085938 245.144531 266.710938 242.378906 267.605469 C 240.414062 275.546875 246.390625 285.894531 244.964844 293.035156 C 243.984375 298.210938 237.648438 299.011719 233.007812 299.90625 C 232.828125 302.761719 233.1875 305.167969 233.542969 307.578125 C 232.472656 311.503906 227.742188 313.734375 223.191406 314.269531 C 208.289062 316.054688 185.714844 316.859375 171.4375 311.683594 C 167.421875 301.867188 164.300781 290 161 278.847656 C 147.078125 280.363281 135.746094 272.867188 125.128906 267.871094 C 121.46875 266.175781 116.382812 265.195312 114.957031 262.25 C 113.617188 259.394531 114.152344 253.953125 113.796875 248.863281 C 112.992188 235.75 112.1875 223.078125 108.796875 209.691406 C 107.28125 203.625 104.515625 198.359375 102.640625 192.558594 C 100.855469 187.207031 97.824219 180.515625 97.019531 175.160156 C 95.859375 167.21875 103.355469 166.773438 108.085938 163.292969 C 115.492188 157.9375 121.289062 154.992188 129.320312 150.175781 C 131.730469 148.746094 138.867188 145.179688 139.671875 143.484375 C 141.277344 140.183594 136.90625 135.542969 135.746094 132.953125 C 133.871094 128.847656 132.890625 125.371094 132.621094 121.355469 C 125.929688 120.285156 120.753906 116.269531 117.722656 111.804688 C 112.636719 104.3125 109.066406 90.480469 113.527344 80.039062 C 113.882812 79.238281 115.578125 77.542969 115.847656 76.292969 C 116.382812 73.792969 114.867188 70.492188 114.777344 67.816406 C 114.332031 54.164062 117.097656 42.382812 126.289062 38.28125 C 130.035156 23.378906 143.417969 18.472656 156 11.066406 C 160.730469 8.296875 165.90625 6.515625 171.261719 4.550781 C 190.445312 -2.5 219.980469 -1.160156 235.953125 10.886719 C 242.734375 15.972656 253.53125 26.769531 257.367188 34.621094 C 267.628906 55.234375 266.828125 89.765625 259.6875 114.929688 C 258.707031 118.320312 257.367188 123.226562 255.40625 127.332031 C 254.066406 130.1875 249.871094 135.808594 250.320312 138.308594 C 250.855469 140.894531 259.957031 147.765625 261.917969 149.640625 C 265.398438 153.03125 272.089844 157.492188 272.625 161.777344 C 273.25 166.328125 270.664062 172.574219 269.324219 176.945312 C 265.042969 191.578125 260.757812 205.050781 255.851562 218.167969 Z M 255.851562 218.167969 " fill-opacity="1" fill-rule="nonzero"/><path fill="#f7e4cd" d="M 187.589844 116.804688 C 188.125 116.089844 191.160156 114.929688 195.441406 116.980469 C 195.441406 116.980469 190.355469 117.785156 190.800781 126.261719 L 188.660156 125.816406 C 188.75 125.90625 186.519531 118.230469 187.589844 116.804688 " fill-opacity="1" fill-rule="nonzero"/><path fill="#1d1919" d="M 224.53125 189.257812 C 224.53125 190.507812 223.460938 191.578125 222.210938 191.578125 C 220.960938 191.578125 219.890625 190.507812 219.890625 189.257812 C 219.890625 188.007812 220.960938 186.9375 222.210938 186.9375 C 223.550781 186.9375 224.53125 188.007812 224.53125 189.257812 " fill-opacity="1" fill-rule="nonzero"/><path fill="#1d1919" d="M 226.851562 200.054688 C 226.851562 201.304688 225.78125 202.375 224.53125 202.375 C 223.28125 202.375 222.210938 201.304688 222.210938 200.054688 C 222.210938 198.804688 223.28125 197.734375 224.53125 197.734375 C 225.871094 197.734375 226.851562 198.71875 226.851562 200.054688 " fill-opacity="1" fill-rule="nonzero"/><path fill="#231f20" d="M 105.316406 336.578125 C 104.605469 336.667969 103.980469 336.757812 103.445312 336.847656 C 102.910156 336.9375 102.375 337.027344 101.660156 337.203125 C 100.855469 337.382812 100.410156 337.738281 100.230469 338.273438 C 100.054688 338.808594 99.875 339.34375 99.875 340.058594 L 99.875 361.832031 C 99.875 363.792969 99.429688 365.667969 98.625 367.363281 C 97.824219 369.058594 96.75 370.398438 95.324219 371.558594 C 93.898438 372.628906 92.289062 373.519531 90.503906 374.054688 C 88.722656 374.589844 86.847656 374.949219 84.882812 374.949219 C 81.402344 374.949219 78.636719 374.144531 76.496094 372.449219 C 74.355469 370.753906 73.285156 368.523438 73.285156 365.578125 C 73.285156 363.882812 73.730469 362.457031 74.710938 361.296875 C 75.695312 360.136719 77.03125 359.601562 78.726562 359.601562 C 80.332031 359.601562 81.582031 360.046875 82.5625 361.027344 C 83.546875 362.011719 83.992188 363.171875 83.992188 364.507812 C 83.992188 365.667969 83.546875 366.828125 82.742188 367.808594 C 81.941406 368.792969 80.957031 369.773438 79.886719 370.578125 L 79.886719 370.933594 C 80.066406 371.289062 80.421875 371.648438 80.957031 371.914062 C 81.492188 372.183594 82.117188 372.273438 82.652344 372.273438 C 84.882812 372.273438 86.667969 371.46875 87.917969 369.863281 C 89.167969 368.257812 89.792969 365.847656 89.792969 362.632812 L 89.792969 340.328125 C 89.792969 339.703125 89.703125 339.078125 89.523438 338.632812 C 89.347656 338.183594 88.808594 337.828125 88.007812 337.472656 C 87.472656 337.203125 86.757812 337.027344 85.953125 336.847656 C 85.152344 336.667969 84.527344 336.578125 83.992188 336.488281 L 83.992188 334.347656 L 105.050781 334.347656 L 105.050781 336.578125 Z M 105.316406 336.578125 " fill-opacity="1" fill-rule="nonzero"/><path fill="#231f20" d="M 138.332031 367.273438 C 137.707031 368.34375 136.90625 369.328125 136.011719 370.308594 C 135.121094 371.289062 134.050781 372.003906 132.890625 372.71875 C 131.640625 373.429688 130.390625 373.96875 129.144531 374.324219 C 127.894531 374.679688 126.375 374.859375 124.769531 374.859375 C 122.003906 374.859375 119.683594 374.503906 117.632812 373.699219 C 115.667969 372.894531 113.972656 371.914062 112.722656 370.578125 C 111.386719 369.238281 110.492188 367.722656 109.78125 365.9375 C 109.15625 364.152344 108.796875 362.1875 108.796875 360.136719 C 108.796875 358.261719 109.15625 356.386719 109.867188 354.691406 C 110.582031 352.996094 111.5625 351.390625 112.8125 350.054688 C 114.0625 348.714844 115.667969 347.644531 117.632812 346.839844 C 119.59375 346.039062 121.738281 345.589844 124.054688 345.589844 C 126.644531 345.589844 128.785156 345.949219 130.480469 346.574219 C 132.175781 347.199219 133.515625 348.089844 134.585938 349.160156 C 135.65625 350.230469 136.371094 351.480469 136.90625 352.910156 C 137.351562 354.335938 137.621094 355.851562 137.621094 357.460938 L 137.621094 359.242188 L 118.792969 359.242188 C 118.792969 363.082031 119.503906 365.9375 121.023438 367.898438 C 122.449219 369.863281 124.859375 370.84375 127.984375 370.84375 C 129.765625 370.84375 131.285156 370.398438 132.710938 369.417969 C 134.140625 368.433594 135.300781 367.273438 136.28125 365.757812 Z M 127.714844 356.65625 C 127.714844 355.585938 127.625 354.425781 127.535156 353.265625 C 127.449219 352.105469 127.269531 351.125 126.910156 350.410156 C 126.554688 349.519531 126.199219 348.894531 125.574219 348.445312 C 125.039062 348 124.324219 347.824219 123.519531 347.824219 C 122.09375 347.824219 120.933594 348.535156 120.128906 349.964844 C 119.238281 351.390625 118.792969 353.710938 118.703125 356.835938 Z M 127.714844 356.65625 " fill-opacity="1" fill-rule="nonzero"/><path fill="#231f20" d="M 177.683594 373.878906 L 160.910156 373.878906 L 160.910156 371.824219 C 161.265625 371.824219 161.710938 371.734375 162.15625 371.648438 C 162.695312 371.558594 163.050781 371.46875 163.316406 371.378906 C 163.675781 371.199219 163.941406 370.84375 164.121094 370.488281 C 164.300781 370.128906 164.390625 369.503906 164.390625 368.792969 L 164.390625 355.765625 C 164.390625 353.890625 164.03125 352.460938 163.316406 351.480469 C 162.605469 350.5 161.621094 350.054688 160.195312 350.054688 C 159.480469 350.054688 158.765625 350.140625 158.144531 350.410156 C 157.519531 350.589844 156.894531 350.945312 156.269531 351.390625 C 155.734375 351.75 155.289062 352.105469 154.929688 352.550781 C 154.574219 352.910156 154.304688 353.265625 154.128906 353.621094 L 154.128906 368.523438 C 154.128906 369.148438 154.214844 369.683594 154.394531 370.128906 C 154.574219 370.578125 154.929688 370.933594 155.289062 371.113281 C 155.554688 371.289062 155.910156 371.46875 156.359375 371.558594 C 156.804688 371.648438 157.25 371.734375 157.695312 371.824219 L 157.695312 373.878906 L 140.742188 373.878906 L 140.742188 371.824219 C 141.1875 371.824219 141.636719 371.734375 142.171875 371.648438 C 142.617188 371.558594 143.0625 371.46875 143.417969 371.378906 C 144.042969 371.199219 144.402344 370.84375 144.667969 370.398438 C 144.847656 369.953125 145.027344 369.417969 145.027344 368.703125 L 145.027344 352.460938 C 145.027344 351.925781 144.847656 351.300781 144.578125 350.765625 C 144.3125 350.230469 143.867188 349.785156 143.417969 349.429688 C 143.0625 349.25 142.707031 348.980469 142.171875 348.894531 C 141.636719 348.714844 141.101562 348.625 140.476562 348.625 L 140.476562 346.574219 L 153.769531 345.859375 L 154.214844 346.304688 L 154.214844 350.320312 L 154.304688 350.320312 C 154.839844 349.875 155.464844 349.339844 156.179688 348.625 C 156.894531 348 157.605469 347.464844 158.230469 347.019531 C 158.945312 346.574219 159.839844 346.214844 160.910156 345.859375 C 161.980469 345.503906 163.230469 345.414062 164.476562 345.414062 C 167.511719 345.414062 169.742188 346.304688 171.257812 348 C 172.777344 349.695312 173.492188 352.015625 173.492188 354.871094 L 173.492188 368.523438 C 173.492188 369.238281 173.578125 369.773438 173.757812 370.128906 C 173.9375 370.578125 174.382812 370.84375 174.917969 371.113281 C 175.1875 371.199219 175.542969 371.378906 175.988281 371.46875 C 176.433594 371.558594 176.882812 371.648438 177.507812 371.734375 L 177.507812 373.878906 Z M 177.683594 373.878906 " fill-opacity="1" fill-rule="nonzero"/><path fill="#231f20" d="M 216.054688 373.878906 L 202.9375 373.878906 C 201.332031 371.023438 199.8125 368.613281 198.476562 366.648438 C 197.136719 364.6875 195.886719 362.8125 194.726562 361.207031 L 193.121094 362.632812 L 193.121094 368.703125 C 193.121094 369.328125 193.210938 369.953125 193.390625 370.308594 C 193.566406 370.753906 193.925781 371.023438 194.550781 371.289062 C 194.90625 371.46875 195.261719 371.558594 195.710938 371.648438 C 196.15625 371.734375 196.601562 371.824219 197.046875 371.824219 L 197.046875 373.878906 L 179.738281 373.878906 L 179.738281 371.824219 C 180.183594 371.824219 180.628906 371.734375 181.164062 371.648438 C 181.609375 371.558594 182.058594 371.46875 182.414062 371.378906 C 183.039062 371.199219 183.394531 370.84375 183.664062 370.398438 C 183.839844 369.953125 184.019531 369.417969 184.019531 368.703125 L 184.019531 337.648438 C 184.019531 337.027344 183.839844 336.402344 183.574219 335.777344 C 183.304688 335.152344 182.949219 334.617188 182.414062 334.257812 C 182.058594 334.082031 181.519531 333.8125 180.808594 333.722656 C 180.09375 333.546875 179.46875 333.457031 178.84375 333.457031 L 178.84375 331.402344 L 192.675781 330.691406 L 193.121094 331.136719 L 193.121094 359.867188 C 194.460938 358.621094 196.066406 357.191406 197.761719 355.585938 C 199.457031 353.980469 200.882812 352.640625 201.867188 351.570312 C 202.492188 350.945312 202.847656 350.5 202.847656 350.140625 C 202.9375 349.785156 202.9375 349.605469 202.9375 349.519531 C 202.9375 349.160156 202.667969 348.894531 202.042969 348.714844 C 201.417969 348.535156 200.617188 348.269531 199.367188 348.089844 L 199.367188 346.128906 L 213.464844 346.128906 L 213.464844 348.089844 C 211.59375 348.625 210.164062 349.070312 209.183594 349.519531 C 208.203125 349.964844 207.128906 350.589844 205.96875 351.300781 C 205.167969 351.835938 204.453125 352.375 203.738281 352.910156 C 203.027344 353.445312 202.222656 354.15625 201.242188 354.960938 C 203.027344 357.636719 204.722656 360.046875 206.238281 362.277344 C 207.753906 364.507812 209.363281 366.917969 211.058594 369.417969 C 211.59375 370.308594 212.304688 370.84375 213.199219 371.199219 C 214.089844 371.46875 214.894531 371.648438 215.785156 371.734375 L 215.785156 373.878906 Z M 216.054688 373.878906 " fill-opacity="1" fill-rule="nonzero"/><path fill="#231f20" d="M 233.898438 373.878906 L 216.320312 373.878906 L 216.320312 371.824219 C 216.765625 371.824219 217.304688 371.734375 217.75 371.648438 C 218.195312 371.558594 218.640625 371.46875 218.910156 371.378906 C 219.535156 371.199219 219.890625 370.84375 220.160156 370.398438 C 220.425781 369.953125 220.515625 369.417969 220.515625 368.703125 L 220.515625 352.460938 C 220.515625 351.835938 220.335938 351.214844 220.070312 350.765625 C 219.800781 350.230469 219.445312 349.875 219 349.605469 C 218.640625 349.429688 218.195312 349.160156 217.480469 348.980469 C 216.765625 348.804688 216.144531 348.625 215.609375 348.625 L 215.609375 346.574219 L 229.261719 345.859375 L 229.707031 346.304688 L 229.707031 368.433594 C 229.707031 369.058594 229.882812 369.59375 230.152344 370.128906 C 230.417969 370.578125 230.867188 370.933594 231.3125 371.113281 C 231.667969 371.289062 232.113281 371.46875 232.5625 371.558594 C 233.007812 371.648438 233.453125 371.734375 233.988281 371.824219 L 233.988281 373.878906 Z M 229.882812 335.953125 C 229.882812 337.382812 229.347656 338.542969 228.277344 339.523438 C 227.207031 340.503906 225.867188 341.039062 224.441406 341.039062 C 222.925781 341.039062 221.675781 340.503906 220.515625 339.523438 C 219.445312 338.542969 218.910156 337.292969 218.910156 335.953125 C 218.910156 334.527344 219.445312 333.367188 220.515625 332.296875 C 221.585938 331.316406 222.925781 330.777344 224.441406 330.777344 C 225.957031 330.777344 227.207031 331.316406 228.277344 332.296875 C 229.347656 333.277344 229.882812 334.527344 229.882812 335.953125 Z M 229.882812 335.953125 " fill-opacity="1" fill-rule="nonzero"/><path fill="#231f20" d="M 273.25 373.878906 L 256.476562 373.878906 L 256.476562 371.824219 C 256.832031 371.824219 257.277344 371.734375 257.722656 371.648438 C 258.261719 371.558594 258.617188 371.46875 258.882812 371.378906 C 259.242188 371.199219 259.507812 370.84375 259.6875 370.488281 C 259.867188 370.128906 259.957031 369.503906 259.957031 368.792969 L 259.957031 355.765625 C 259.957031 353.890625 259.597656 352.460938 258.882812 351.480469 C 258.171875 350.5 257.1875 350.054688 255.761719 350.054688 C 255.046875 350.054688 254.332031 350.140625 253.710938 350.410156 C 253.085938 350.679688 252.460938 350.945312 251.835938 351.390625 C 251.300781 351.75 250.855469 352.105469 250.496094 352.550781 C 250.140625 352.910156 249.871094 353.265625 249.695312 353.621094 L 249.695312 368.523438 C 249.695312 369.148438 249.78125 369.683594 249.960938 370.128906 C 250.140625 370.578125 250.496094 370.933594 250.855469 371.113281 C 251.121094 371.289062 251.476562 371.46875 251.925781 371.558594 C 252.371094 371.648438 252.816406 371.734375 253.261719 371.824219 L 253.261719 373.878906 L 236.308594 373.878906 L 236.308594 371.824219 C 236.753906 371.824219 237.203125 371.734375 237.738281 371.648438 C 238.183594 371.558594 238.628906 371.46875 238.984375 371.378906 C 239.609375 371.199219 239.96875 370.84375 240.234375 370.398438 C 240.414062 369.953125 240.59375 369.417969 240.59375 368.703125 L 240.59375 352.460938 C 240.59375 351.925781 240.414062 351.300781 240.144531 350.765625 C 239.878906 350.230469 239.433594 349.785156 238.984375 349.429688 C 238.628906 349.25 238.273438 348.980469 237.738281 348.894531 C 237.203125 348.714844 236.664062 348.625 236.042969 348.625 L 236.042969 346.574219 L 249.335938 345.859375 L 249.78125 346.304688 L 249.78125 350.320312 L 249.871094 350.320312 C 250.40625 349.875 251.03125 349.339844 251.746094 348.625 C 252.460938 348 253.171875 347.464844 253.796875 347.019531 C 254.511719 346.574219 255.40625 346.214844 256.476562 345.859375 C 257.546875 345.503906 258.796875 345.414062 260.042969 345.414062 C 263.078125 345.414062 265.308594 346.304688 266.824219 348 C 268.34375 349.695312 269.058594 352.015625 269.058594 354.871094 L 269.058594 368.523438 C 269.058594 369.238281 269.144531 369.773438 269.324219 370.128906 C 269.503906 370.578125 269.949219 370.84375 270.484375 371.113281 C 270.753906 371.199219 271.109375 371.378906 271.554688 371.46875 C 272 371.558594 272.449219 371.648438 273.070312 371.734375 L 273.070312 373.878906 Z M 273.25 373.878906 " fill-opacity="1" fill-rule="nonzero"/><path fill="#231f20" d="M 288.6875 374.859375 C 286.902344 374.859375 285.117188 374.589844 283.421875 374.054688 C 281.726562 373.519531 280.390625 372.984375 279.40625 372.359375 L 278.605469 374.234375 L 276.464844 374.234375 L 276.105469 363.882812 L 278.160156 363.882812 C 278.425781 364.6875 278.871094 365.667969 279.585938 366.738281 C 280.210938 367.808594 281.015625 368.703125 281.816406 369.59375 C 282.710938 370.398438 283.691406 371.113281 284.851562 371.734375 C 286.011719 372.273438 287.171875 372.628906 288.421875 372.628906 C 290.117188 372.628906 291.363281 372.273438 292.167969 371.648438 C 292.972656 371.023438 293.417969 369.953125 293.417969 368.613281 C 293.417969 367.898438 293.238281 367.273438 292.882812 366.738281 C 292.523438 366.292969 291.988281 365.847656 291.363281 365.488281 C 290.652344 365.132812 289.847656 364.777344 288.957031 364.507812 C 288.0625 364.242188 286.992188 363.972656 285.742188 363.527344 C 284.492188 363.171875 283.421875 362.8125 282.53125 362.367188 C 281.636719 362.011719 280.65625 361.386719 279.765625 360.582031 C 278.960938 359.867188 278.246094 358.976562 277.800781 357.996094 C 277.265625 357.011719 277.085938 355.765625 277.085938 354.335938 C 277.085938 351.75 278.160156 349.605469 280.390625 348 C 282.621094 346.394531 285.476562 345.589844 289.042969 345.589844 C 290.738281 345.589844 292.257812 345.769531 293.683594 346.128906 C 295.113281 346.484375 296.273438 346.839844 297.253906 347.285156 L 297.878906 345.679688 L 300.019531 345.679688 L 300.464844 355.140625 L 298.503906 355.140625 C 297.878906 353.175781 296.71875 351.570312 295.203125 350.140625 C 293.59375 348.714844 291.898438 348 290.117188 348 C 288.6875 348 287.527344 348.269531 286.722656 348.894531 C 285.921875 349.519531 285.476562 350.320312 285.476562 351.390625 C 285.476562 352.820312 286.101562 353.800781 287.261719 354.425781 C 288.421875 355.050781 290.117188 355.675781 292.257812 356.210938 C 295.558594 357.101562 297.96875 358.261719 299.574219 359.691406 C 301.089844 361.207031 301.894531 363.082031 301.894531 365.3125 C 301.894531 368.34375 300.734375 370.753906 298.324219 372.359375 C 295.648438 373.96875 292.523438 374.859375 288.6875 374.859375 Z M 288.6875 374.859375 " fill-opacity="1" fill-rule="nonzero"/></svg>