<svg xmlns="http://www.w3.org/2000/svg" xmlns:xlink="http://www.w3.org/1999/xlink" width="500" zoomAndPan="magnify" viewBox="0 0 375 374.999991" height="500" preserveAspectRatio="xMidYMid meet" version="1.0"><rect x="-37.5" width="450" fill="#7b4cee" y="-37.499999" height="449.999989" fill-opacity="1"/><path fill="#ffffff" d="M 82.925781 188.742188 L 82.808594 204.101562 L 131.617188 204.101562 L 131.617188 342.792969 L 166.140625 342.792969 L 166.140625 204.101562 L 214.953125 204.101562 L 214.953125 189.042969 C 214.953125 180.707031 214.773438 173.742188 214.535156 173.566406 C 214.355469 173.328125 184.652344 173.207031 148.640625 173.269531 L 83.105469 173.445312 Z M 82.925781 188.742188 " fill-opacity="1" fill-rule="nonzero"/><path fill="#ffffff" d="M 302.585938 173.007812 C 312.113281 175.390625 319.375 179.617188 326.039062 186.519531 C 329.492188 190.210938 334.613281 196.9375 335.027344 198.546875 C 335.148438 199.019531 318.835938 209.972656 308.957031 216.105469 C 308.601562 216.34375 307.171875 214.796875 305.5625 212.414062 C 300.742188 205.390625 295.683594 202.355469 287.945312 201.820312 C 276.574219 201.046875 269.253906 206.996094 269.3125 216.9375 C 269.3125 219.855469 269.730469 221.582031 270.921875 223.960938 C 273.421875 229.140625 278.0625 232.234375 292.648438 238.546875 C 319.492188 250.09375 330.980469 257.710938 338.125 268.546875 C 346.101562 280.628906 347.886719 299.914062 342.46875 314.257812 C 336.515625 329.855469 321.753906 340.449219 300.980469 343.960938 C 294.550781 345.09375 279.3125 344.914062 272.410156 343.664062 C 257.351562 340.984375 243.0625 333.546875 234.253906 323.785156 C 230.800781 319.972656 224.074219 310.035156 224.492188 309.320312 C 224.671875 309.082031 226.21875 308.128906 227.945312 307.117188 C 229.613281 306.164062 235.921875 302.535156 241.875 299.082031 L 252.648438 292.832031 L 254.910156 296.164062 C 258.0625 300.984375 264.96875 307.59375 269.136719 309.796875 C 281.101562 316.105469 297.527344 315.210938 305.625 307.949219 C 309.074219 304.796875 310.503906 301.519531 310.503906 296.699219 C 310.503906 292.355469 309.96875 290.449219 307.707031 287.175781 C 304.789062 283.007812 298.835938 279.496094 281.933594 272.175781 C 262.585938 263.84375 254.253906 258.664062 246.636719 250.449219 C 242.230469 245.6875 238.0625 238.070312 236.335938 231.699219 C 234.910156 226.402344 234.550781 213.128906 235.683594 207.769531 C 239.671875 189.082031 253.777344 176.046875 274.136719 172.175781 C 280.742188 170.925781 296.101562 171.402344 302.585938 173.007812 Z M 302.585938 173.007812 " fill-opacity="1" fill-rule="nonzero"/></svg>