<svg xmlns="http://www.w3.org/2000/svg" xmlns:xlink="http://www.w3.org/1999/xlink" width="500" zoomAndPan="magnify" viewBox="0 0 375 374.999991" height="500" preserveAspectRatio="xMidYMid meet" version="1.0"><path fill="#7b4cee" d="M 185.332031 302.34375 C 184.101562 302.34375 182.871094 301.992188 181.757812 301.40625 L 170.507812 294.726562 C 168.808594 293.789062 169.628906 293.4375 170.214844 293.261719 C 172.441406 292.5 172.910156 292.324219 175.3125 290.917969 C 175.546875 290.800781 175.898438 290.859375 176.132812 290.976562 L 184.804688 296.132812 C 185.097656 296.308594 185.566406 296.308594 185.859375 296.132812 L 219.726562 276.5625 C 220.019531 276.386719 220.253906 276.035156 220.253906 275.625 L 220.253906 236.542969 C 220.253906 236.132812 220.078125 235.78125 219.726562 235.605469 L 185.859375 216.09375 C 185.566406 215.917969 185.15625 215.917969 184.804688 216.09375 L 150.9375 235.605469 C 150.585938 235.78125 150.410156 236.191406 150.410156 236.542969 L 150.410156 275.625 C 150.410156 275.976562 150.644531 276.328125 150.9375 276.503906 L 160.195312 281.835938 C 165.234375 284.355469 168.339844 281.367188 168.339844 278.4375 L 168.339844 239.824219 C 168.339844 239.296875 168.75 238.828125 169.335938 238.828125 L 173.613281 238.828125 C 174.140625 238.828125 174.609375 239.238281 174.609375 239.824219 L 174.609375 278.4375 C 174.609375 285.175781 170.976562 288.984375 164.589844 288.984375 C 162.65625 288.984375 161.074219 288.984375 156.796875 286.875 L 147.890625 281.777344 C 145.722656 280.488281 144.316406 278.144531 144.316406 275.625 L 144.316406 236.542969 C 144.316406 234.023438 145.664062 231.621094 147.890625 230.390625 L 181.757812 210.820312 C 183.925781 209.589844 186.738281 209.589844 188.847656 210.820312 L 222.714844 230.390625 C 224.882812 231.679688 226.289062 234.023438 226.289062 236.542969 L 226.289062 275.625 C 226.289062 278.144531 224.941406 280.546875 222.714844 281.777344 L 188.847656 301.347656 C 187.851562 301.992188 186.621094 302.34375 185.332031 302.34375 Z M 212.695312 263.789062 C 212.695312 256.464844 207.773438 254.53125 197.34375 253.125 C 186.796875 251.71875 185.742188 251.015625 185.742188 248.554688 C 185.742188 246.503906 186.621094 243.808594 194.414062 243.808594 C 201.386719 243.808594 203.964844 245.332031 205.019531 250.019531 C 205.136719 250.488281 205.488281 250.78125 205.957031 250.78125 L 210.351562 250.78125 C 210.644531 250.78125 210.878906 250.664062 211.054688 250.488281 C 211.230469 250.253906 211.347656 250.019531 211.289062 249.726562 C 210.585938 241.640625 205.253906 237.890625 194.414062 237.890625 C 184.746094 237.890625 179.003906 241.992188 179.003906 248.789062 C 179.003906 256.230469 184.746094 258.222656 194.003906 259.160156 C 205.078125 260.273438 205.957031 261.855469 205.957031 264.023438 C 205.957031 267.832031 202.910156 269.414062 195.761719 269.414062 C 186.796875 269.414062 184.804688 267.1875 184.160156 262.734375 C 184.101562 262.265625 183.691406 261.914062 183.164062 261.914062 L 178.769531 261.914062 C 178.242188 261.914062 177.773438 262.324219 177.773438 262.910156 C 177.773438 268.59375 180.878906 275.390625 195.703125 275.390625 C 206.542969 275.390625 212.695312 271.171875 212.695312 263.789062 Z M 244.628906 234.433594 C 244.628906 238.007812 241.699219 240.9375 238.125 240.9375 C 234.550781 240.9375 231.621094 238.007812 231.621094 234.433594 C 231.621094 230.742188 234.667969 227.929688 238.125 227.929688 C 241.640625 227.871094 244.628906 230.742188 244.628906 234.433594 Z M 243.574219 234.433594 C 243.574219 231.386719 241.113281 228.984375 238.066406 228.984375 C 235.078125 228.984375 232.617188 231.386719 232.617188 234.433594 C 232.617188 237.480469 235.078125 239.941406 238.066406 239.941406 C 241.113281 239.882812 243.574219 237.421875 243.574219 234.433594 Z M 240.9375 238.066406 L 239.414062 238.066406 C 239.355469 237.714844 239.121094 235.839844 239.121094 235.78125 C 239.003906 235.371094 238.886719 235.136719 238.359375 235.136719 L 237.070312 235.136719 L 237.070312 238.066406 L 235.664062 238.066406 L 235.664062 230.742188 L 238.183594 230.742188 C 239.0625 230.742188 240.761719 230.742188 240.761719 232.675781 C 240.761719 234.023438 239.882812 234.316406 239.355469 234.492188 C 240.351562 234.550781 240.410156 235.195312 240.585938 236.132812 C 240.644531 236.71875 240.761719 237.714844 240.9375 238.066406 Z M 239.296875 232.910156 C 239.296875 231.914062 238.59375 231.914062 238.242188 231.914062 L 237.070312 231.914062 L 237.070312 233.964844 L 238.183594 233.964844 C 239.121094 233.964844 239.296875 233.320312 239.296875 232.910156 Z M 80.449219 149.414062 C 80.449219 147.832031 79.628906 146.425781 78.28125 145.664062 L 42.363281 124.980469 C 41.777344 124.628906 41.074219 124.453125 40.371094 124.394531 L 40.019531 124.394531 C 39.316406 124.394531 38.671875 124.628906 38.027344 124.980469 L 2.167969 145.664062 C 0.820312 146.425781 0 147.890625 0 149.414062 L 0.0585938 205.078125 C 0.0585938 205.839844 0.46875 206.542969 1.113281 206.953125 C 1.757812 207.363281 2.578125 207.363281 3.28125 206.953125 L 24.609375 194.707031 C 25.957031 193.886719 26.777344 192.480469 26.777344 190.957031 L 26.777344 164.941406 C 26.777344 163.417969 27.597656 161.953125 28.945312 161.191406 L 38.027344 155.976562 C 38.730469 155.566406 39.433594 155.390625 40.195312 155.390625 C 40.957031 155.390625 41.71875 155.566406 42.363281 155.976562 L 51.445312 161.191406 C 52.792969 161.953125 53.613281 163.417969 53.613281 164.941406 L 53.613281 190.957031 C 53.613281 192.480469 54.433594 193.945312 55.78125 194.707031 L 77.109375 206.953125 C 77.753906 207.363281 78.632812 207.363281 79.277344 206.953125 C 79.921875 206.601562 80.332031 205.839844 80.332031 205.078125 Z M 276.855469 88.652344 L 276.855469 192.011719 C 276.855469 193.535156 276.035156 195 274.6875 195.761719 L 238.769531 216.503906 C 237.421875 217.265625 235.78125 217.265625 234.433594 216.503906 L 198.515625 195.761719 C 197.167969 195 196.347656 193.535156 196.347656 192.011719 L 196.347656 150.527344 C 196.347656 149.003906 197.167969 147.539062 198.515625 146.777344 L 234.433594 126.035156 C 235.78125 125.273438 237.421875 125.273438 238.769531 126.035156 L 247.734375 131.191406 C 248.730469 131.777344 250.019531 131.015625 250.019531 129.902344 L 250.019531 74.824219 C 250.019531 73.183594 251.777344 72.128906 253.242188 72.949219 L 274.628906 84.902344 C 275.976562 85.605469 276.855469 87.070312 276.855469 88.652344 Z M 249.902344 164.179688 C 249.902344 163.769531 249.667969 163.417969 249.375 163.242188 L 237.070312 156.09375 C 236.71875 155.917969 236.308594 155.917969 235.957031 156.09375 L 223.652344 163.242188 C 223.300781 163.417969 223.125 163.769531 223.125 164.179688 L 223.125 178.417969 C 223.125 178.828125 223.359375 179.179688 223.652344 179.355469 L 235.957031 186.445312 C 236.308594 186.621094 236.71875 186.621094 237.011719 186.445312 L 249.316406 179.355469 C 249.667969 179.179688 249.84375 178.828125 249.84375 178.417969 L 249.84375 164.179688 Z M 372.832031 163.769531 C 374.179688 163.007812 375 161.542969 375 160.019531 L 375 150 C 375 148.476562 374.179688 147.011719 372.832031 146.25 L 337.148438 125.507812 C 335.800781 124.746094 334.160156 124.746094 332.8125 125.507812 L 296.894531 146.25 C 295.546875 147.011719 294.726562 148.476562 294.726562 150 L 294.726562 191.484375 C 294.726562 193.066406 295.546875 194.472656 296.894531 195.234375 L 332.578125 215.566406 C 333.867188 216.328125 335.507812 216.328125 336.855469 215.566406 L 358.417969 203.554688 C 359.882812 202.734375 359.882812 200.625 358.417969 199.804688 L 322.265625 179.0625 C 321.5625 178.652344 321.152344 177.949219 321.152344 177.1875 L 321.152344 164.179688 C 321.152344 163.417969 321.5625 162.714844 322.265625 162.304688 L 333.515625 155.800781 C 334.160156 155.390625 335.039062 155.390625 335.683594 155.800781 L 346.933594 162.304688 C 347.578125 162.714844 348.046875 163.417969 348.046875 164.179688 L 348.046875 174.375 C 348.046875 176.015625 349.863281 177.070312 351.328125 176.25 Z M 327.539062 165.820312 C 327.304688 165.996094 327.128906 166.230469 327.128906 166.523438 L 327.128906 174.492188 C 327.128906 174.785156 327.304688 175.078125 327.539062 175.195312 L 334.453125 179.179688 C 334.6875 179.355469 335.039062 179.355469 335.273438 179.179688 L 342.1875 175.195312 C 342.421875 175.019531 342.597656 174.785156 342.597656 174.492188 L 342.597656 166.523438 C 342.597656 166.230469 342.421875 165.9375 342.1875 165.820312 L 335.273438 161.835938 C 335.039062 161.660156 334.6875 161.660156 334.453125 161.835938 Z M 178.59375 191.308594 L 178.59375 150.058594 C 178.59375 148.535156 177.65625 147.070312 176.308594 146.308594 L 140.507812 125.683594 C 139.277344 124.980469 137.578125 124.863281 136.171875 125.683594 L 100.371094 146.308594 C 99.023438 147.070312 98.085938 148.476562 98.085938 150.058594 L 98.085938 191.308594 C 98.085938 192.949219 99.199219 194.355469 100.429688 195.058594 L 136.289062 215.683594 C 137.695312 216.503906 139.335938 216.445312 140.625 215.683594 L 176.367188 195.058594 C 177.421875 194.472656 178.183594 193.476562 178.476562 192.304688 C 178.535156 192.011719 178.59375 191.660156 178.59375 191.308594 Z M 135.058594 118.125 L 134.589844 118.417969 L 135.234375 118.417969 Z M 179.707031 194.414062 L 179.472656 194.003906 L 179.472656 194.53125 Z M 179.707031 194.414062 " fill-opacity="1" fill-rule="nonzero"/></svg>