<svg xmlns="http://www.w3.org/2000/svg" xmlns:xlink="http://www.w3.org/1999/xlink" width="500" zoomAndPan="magnify" viewBox="0 0 375 374.999991" height="500" preserveAspectRatio="xMidYMid meet" version="1.0"><path fill="#7b4cee" d="M 373.464844 211.308594 C 386.589844 108.578125 314.039062 14.65625 211.496094 1.535156 C 108.953125 -11.589844 14.65625 60.960938 1.535156 163.503906 C -11.589844 266.046875 60.960938 360.15625 163.503906 373.464844 C 266.234375 386.589844 360.15625 314.039062 373.464844 211.308594 Z M 373.464844 211.308594 " fill-opacity="1" fill-rule="nonzero"/><path fill="#ffffff" d="M 255.175781 120.386719 L 176.0625 199.496094 L 153.753906 177.191406 C 231.554688 99.390625 239.242188 106.140625 255.175781 120.386719 Z M 255.175781 120.386719 " fill-opacity="1" fill-rule="nonzero"/><path fill="#7b4cee" d="M 176.0625 201.371094 C 175.5 201.371094 175.125 201.183594 174.753906 200.808594 L 152.257812 178.5 C 151.507812 177.75 151.507812 176.628906 152.257812 175.878906 C 231.367188 96.765625 239.617188 104.265625 256.300781 119.261719 C 256.675781 119.636719 256.863281 120.011719 256.863281 120.574219 C 256.863281 121.136719 256.675781 121.511719 256.300781 121.886719 L 177.1875 200.808594 C 177 201.183594 176.4375 201.371094 176.0625 201.371094 Z M 156.378906 177.191406 L 176.0625 196.875 L 252.363281 120.574219 C 238.492188 108.203125 229.117188 104.453125 156.378906 177.191406 Z M 156.378906 177.191406 " fill-opacity="1" fill-rule="nonzero"/><path fill="#ffffff" d="M 198.746094 222.179688 L 177.1875 200.621094 L 256.300781 121.511719 C 277.484375 142.882812 245.800781 177.5625 198.746094 222.179688 Z M 198.746094 222.179688 " fill-opacity="1" fill-rule="nonzero"/><path fill="#7b4cee" d="M 198.746094 224.054688 C 198.183594 224.054688 197.808594 223.867188 197.433594 223.492188 L 175.875 201.933594 C 175.5 201.558594 175.5 201.183594 175.5 200.621094 C 175.5 200.058594 175.6875 199.683594 176.0625 199.308594 L 255.175781 120.199219 C 255.925781 119.449219 257.050781 119.449219 257.800781 120.199219 C 262.671875 124.699219 265.296875 131.074219 265.109375 137.632812 C 264.734375 158.441406 241.113281 184.875 200.246094 223.492188 C 199.683594 223.867188 199.121094 224.054688 198.746094 224.054688 Z M 179.8125 200.621094 C 191.8125 212.808594 196.871094 217.683594 198.746094 219.558594 C 230.242188 189.5625 260.800781 158.816406 260.988281 137.632812 C 261.175781 132.761719 259.300781 127.886719 256.113281 124.136719 Z M 179.8125 200.621094 " fill-opacity="1" fill-rule="nonzero"/><path fill="#ffffff" d="M 154.128906 177.75 L 170.066406 193.6875 C 170.441406 194.0625 170.441406 194.4375 170.066406 194.8125 C 169.878906 195 169.878906 195 169.691406 195 L 136.695312 202.121094 C 135.007812 202.308594 133.507812 201.183594 133.132812 199.496094 C 132.945312 198.5625 133.320312 197.625 133.882812 197.0625 L 153.007812 177.9375 C 153.378906 177.5625 153.941406 177.375 154.128906 177.75 Z M 154.128906 177.75 " fill-opacity="1" fill-rule="nonzero"/><path fill="#7b4cee" d="M 136.132812 203.996094 C 133.320312 203.996094 131.261719 201.746094 131.261719 198.933594 C 131.261719 197.625 131.820312 196.3125 132.757812 195.375 L 151.882812 176.253906 C 153.007812 175.316406 154.503906 175.316406 155.628906 176.253906 L 171.566406 192.1875 C 172.691406 193.125 172.691406 194.8125 171.566406 195.9375 C 171.191406 196.3125 170.816406 196.5 170.253906 196.6875 L 137.257812 203.808594 C 136.882812 203.808594 136.507812 203.996094 136.132812 203.996094 Z M 153.566406 179.8125 L 135.195312 198.1875 C 134.820312 198.5625 134.632812 199.121094 135.007812 199.683594 C 135.195312 200.246094 135.757812 200.433594 136.320312 200.246094 L 167.253906 193.5 Z M 153.566406 179.8125 " fill-opacity="1" fill-rule="nonzero"/><path fill="#ffffff" d="M 296.980469 76.519531 C 284.980469 64.898438 265.671875 65.273438 254.050781 77.457031 C 242.425781 89.644531 242.800781 108.765625 254.988281 120.386719 C 264.921875 129.949219 279.921875 131.636719 291.730469 124.511719 L 270.359375 103.140625 Z M 296.980469 76.519531 " fill-opacity="1" fill-rule="nonzero"/><path fill="#7b4cee" d="M 275.984375 130.699219 C 258.175781 130.699219 243.738281 116.261719 243.738281 98.453125 C 243.738281 80.644531 258.175781 66.210938 275.984375 66.210938 C 284.230469 66.210938 292.292969 69.394531 298.292969 75.207031 C 298.667969 75.582031 298.855469 75.957031 298.855469 76.519531 C 298.855469 77.082031 298.667969 77.457031 298.292969 77.832031 L 272.984375 103.140625 L 292.855469 123.011719 C 293.605469 123.761719 293.605469 124.886719 292.855469 125.636719 C 292.667969 125.824219 292.667969 125.824219 292.480469 126.011719 C 287.605469 129.011719 281.796875 130.699219 275.984375 130.699219 Z M 275.984375 70.144531 C 260.238281 70.144531 247.488281 82.894531 247.675781 98.640625 C 247.675781 114.386719 260.425781 127.136719 276.171875 126.949219 C 280.484375 126.949219 284.792969 126.011719 288.730469 123.949219 L 269.046875 104.453125 C 268.671875 104.078125 268.484375 103.703125 268.484375 103.140625 C 268.484375 102.578125 268.671875 102.203125 269.046875 101.828125 L 294.167969 76.707031 C 289.105469 72.394531 282.734375 70.144531 275.984375 70.144531 Z M 275.984375 70.144531 " fill-opacity="1" fill-rule="nonzero"/><path fill="#ffffff" d="M 297.542969 77.082031 L 297.167969 76.707031 L 270.359375 103.140625 L 291.542969 124.324219 C 293.605469 123.011719 295.667969 121.511719 297.355469 119.824219 C 309.351562 108.015625 309.351562 88.894531 297.542969 77.082031 Z M 297.542969 77.082031 " fill-opacity="1" fill-rule="nonzero"/><path fill="#7b4cee" d="M 291.730469 126.386719 C 291.167969 126.386719 290.792969 126.199219 290.417969 125.824219 L 269.046875 104.453125 C 268.671875 104.078125 268.484375 103.703125 268.484375 103.140625 C 268.484375 102.578125 268.671875 102.203125 269.046875 101.828125 L 295.667969 75.207031 C 296.417969 74.457031 297.542969 74.457031 298.292969 75.207031 L 298.855469 75.582031 C 311.414062 88.144531 311.414062 108.390625 299.042969 121.136719 C 297.167969 123.011719 295.105469 124.699219 292.855469 126.011719 C 292.292969 126.199219 291.917969 126.386719 291.730469 126.386719 Z M 272.984375 103.140625 L 291.917969 122.074219 C 293.417969 121.136719 294.917969 119.824219 296.042969 118.699219 C 306.726562 108.015625 307.289062 90.578125 296.980469 79.332031 Z M 272.984375 103.140625 " fill-opacity="1" fill-rule="nonzero"/><path fill="#ffffff" d="M 258.363281 123.761719 C 253.863281 119.261719 246.550781 119.261719 242.050781 123.761719 L 171.378906 194.4375 L 183.1875 206.246094 L 257.988281 140.632812 C 262.859375 136.507812 263.234375 129.199219 259.113281 124.324219 C 258.738281 124.136719 258.550781 123.949219 258.363281 123.761719 Z M 258.363281 123.761719 " fill-opacity="1" fill-rule="nonzero"/><path fill="#7b4cee" d="M 183 208.121094 C 182.4375 208.121094 182.0625 207.933594 181.6875 207.558594 L 169.878906 195.75 C 169.128906 195 169.128906 193.875 169.878906 193.125 L 240.550781 122.449219 C 245.800781 117.199219 254.238281 117.199219 259.488281 122.449219 C 264.734375 127.699219 264.734375 136.132812 259.488281 141.382812 C 259.300781 141.570312 259.113281 141.757812 258.925781 141.945312 L 184.125 207.558594 C 183.9375 207.933594 183.5625 208.121094 183 208.121094 Z M 174.003906 194.4375 L 183.1875 203.621094 L 256.675781 139.132812 C 260.800781 135.757812 261.175781 129.574219 257.800781 125.449219 C 254.425781 121.324219 248.238281 120.949219 244.113281 124.324219 C 243.925781 124.511719 243.738281 124.699219 243.363281 124.886719 Z M 174.003906 194.4375 " fill-opacity="1" fill-rule="nonzero"/><path fill="#ffffff" d="M 117.199219 274.859375 C 116.449219 275.234375 116.074219 275.984375 116.261719 276.734375 L 119.449219 290.230469 C 120.199219 292.105469 119.074219 294.355469 117.011719 294.917969 C 115.511719 295.480469 113.824219 294.917969 112.886719 293.792969 L 92.265625 273.359375 L 159.566406 206.058594 L 182.8125 206.433594 L 198.558594 222.179688 C 194.8125 225.367188 172.128906 247.300781 117.199219 274.859375 Z M 117.199219 274.859375 " fill-opacity="1" fill-rule="nonzero"/><path fill="#7b4cee" d="M 115.699219 296.792969 C 114.199219 296.792969 112.699219 296.230469 111.761719 295.105469 L 91.328125 274.671875 C 90.953125 274.296875 90.765625 273.921875 90.765625 273.359375 C 90.765625 272.796875 90.953125 272.421875 91.328125 272.046875 L 158.628906 204.746094 C 159.003906 204.371094 159.566406 204.183594 159.941406 204.183594 L 183.1875 204.558594 C 183.75 204.558594 184.125 204.746094 184.5 205.121094 L 200.246094 220.867188 C 200.621094 221.242188 200.808594 221.804688 200.808594 222.367188 C 200.808594 222.929688 200.621094 223.304688 200.058594 223.679688 L 198.746094 224.804688 C 178.875 242.238281 151.882812 259.675781 118.324219 276.359375 L 121.511719 289.667969 C 122.074219 292.105469 120.949219 294.730469 118.699219 296.042969 C 117.574219 296.605469 116.636719 296.792969 115.699219 296.792969 Z M 95.078125 273.359375 L 114.386719 292.480469 C 114.949219 293.417969 116.074219 293.792969 117.011719 293.230469 C 117.949219 292.667969 118.324219 291.542969 117.761719 290.605469 L 114.574219 277.109375 C 114.199219 275.421875 114.949219 273.921875 116.449219 273.171875 C 149.632812 256.488281 176.4375 239.242188 196.125 222.179688 L 182.25 208.308594 L 160.691406 207.933594 Z M 95.078125 273.359375 " fill-opacity="1" fill-rule="nonzero"/><path fill="#ffffff" d="M 76.332031 289.480469 L 92.453125 273.359375 L 116.449219 297.355469 L 78.207031 294.730469 C 76.519531 294.542969 75.394531 293.042969 75.582031 291.355469 C 75.582031 290.605469 75.769531 289.855469 76.332031 289.480469 Z M 76.332031 289.480469 " fill-opacity="1" fill-rule="nonzero"/><path fill="#7b4cee" d="M 116.449219 299.042969 L 78.019531 296.417969 C 75.207031 296.230469 73.332031 293.792969 73.519531 290.980469 C 73.707031 289.855469 74.082031 288.730469 75.019531 287.980469 L 91.140625 271.859375 C 91.890625 271.109375 93.015625 271.109375 93.765625 271.859375 L 117.761719 295.855469 C 118.324219 296.417969 118.511719 297.167969 118.136719 297.917969 C 117.761719 298.667969 117.199219 299.042969 116.449219 299.042969 Z M 92.453125 275.984375 L 77.644531 290.792969 C 77.082031 291.167969 77.082031 292.105469 77.644531 292.480469 C 77.832031 292.667969 78.019531 292.855469 78.394531 292.855469 L 111.574219 295.105469 Z M 92.453125 275.984375 " fill-opacity="1" fill-rule="nonzero"/><path fill="#7b4cee" d="M 153.007812 214.683594 C 151.882812 214.683594 151.132812 213.746094 151.132812 212.808594 C 151.132812 212.246094 151.320312 211.871094 151.695312 211.496094 L 169.878906 193.3125 C 170.628906 192.5625 171.753906 192.5625 172.503906 193.3125 L 184.3125 205.121094 C 184.875 205.683594 185.0625 206.246094 184.875 206.996094 C 184.6875 207.558594 184.125 208.121094 183.375 208.308594 L 153.378906 214.683594 C 153.191406 214.683594 153.007812 214.683594 153.007812 214.683594 Z M 171.191406 197.25 L 158.816406 209.621094 L 179.0625 205.308594 Z M 171.191406 197.25 " fill-opacity="1" fill-rule="nonzero"/><path fill="#ffffff" d="M 182.8125 206.433594 L 162.191406 210.933594 C 160.691406 211.308594 159.191406 210.371094 158.816406 208.871094 C 158.628906 207.933594 158.816406 206.996094 159.566406 206.246094 L 171.003906 194.8125 Z M 182.8125 206.433594 " fill-opacity="1" fill-rule="nonzero"/><path fill="#7b4cee" d="M 161.816406 212.808594 C 159.191406 212.808594 157.128906 210.746094 157.128906 208.121094 C 157.128906 206.808594 157.691406 205.683594 158.441406 204.746094 L 169.878906 193.3125 C 170.628906 192.5625 171.753906 192.5625 172.503906 193.3125 L 184.3125 205.121094 C 184.875 205.683594 185.0625 206.246094 184.875 206.996094 C 184.6875 207.558594 184.125 208.121094 183.375 208.308594 L 162.753906 212.808594 C 162.378906 212.808594 162.003906 212.808594 161.816406 212.808594 Z M 171.191406 197.25 L 161.066406 207.371094 C 160.691406 207.746094 160.691406 208.121094 160.878906 208.496094 C 161.066406 208.871094 161.441406 209.058594 162.003906 209.058594 L 179.25 205.308594 Z M 171.191406 197.25 " fill-opacity="1" fill-rule="nonzero"/><path fill="#7b4cee" d="M 297.730469 95.078125 C 297.355469 93.953125 296.042969 93.390625 294.917969 93.765625 C 293.792969 94.140625 293.230469 95.453125 293.605469 96.578125 C 293.605469 96.765625 293.792969 96.953125 293.792969 97.140625 C 294.917969 99.390625 294.542969 102.203125 293.042969 104.265625 C 292.292969 105.203125 292.480469 106.515625 293.230469 107.265625 C 294.167969 108.015625 295.480469 107.828125 296.230469 106.890625 C 299.042969 103.328125 299.605469 98.828125 297.730469 95.078125 Z M 297.730469 95.078125 " fill-opacity="1" fill-rule="nonzero"/></svg>