<svg xmlns="http://www.w3.org/2000/svg" xmlns:xlink="http://www.w3.org/1999/xlink" width="500" zoomAndPan="magnify" viewBox="0 0 375 374.999991" height="500" preserveAspectRatio="xMidYMid meet" version="1.0"><defs><clipPath id="df19d09e20"><path d="M 47.046875 23 L 328 23 L 328 352 L 47.046875 352 Z M 47.046875 23 " clip-rule="nonzero"/></clipPath></defs><g clip-path="url(#df19d09e20)"><path fill="#7b4cee" d="M 47.046875 23.640625 L 72.574219 313.171875 L 187.496094 351.355469 L 302.414062 313.171875 L 327.945312 23.640625 Z M 276.082031 82.164062 L 272.570312 116.761719 L 188.226562 152.828125 L 188.007812 152.898438 L 269.570312 152.898438 L 260.207031 260.136719 L 188.371094 281.132812 L 116.101562 259.773438 L 111.417969 205.714844 L 147.1875 205.714844 L 149.53125 233.730469 L 188.007812 243.460938 L 228.019531 232.195312 L 230.726562 187.132812 L 109.078125 186.769531 L 109.078125 186.695312 L 108.929688 186.769531 L 106.296875 152.898438 L 188.300781 118.738281 L 193.054688 116.761719 L 103.152344 116.761719 L 98.910156 82.164062 Z M 276.082031 82.164062 " fill-opacity="1" fill-rule="nonzero"/></g></svg>