<svg xmlns="http://www.w3.org/2000/svg" xmlns:xlink="http://www.w3.org/1999/xlink" width="500" zoomAndPan="magnify" viewBox="0 0 375 374.999991" height="500" preserveAspectRatio="xMidYMid meet" version="1.0"><defs><clipPath id="f4f82911d2"><path d="M 47.046875 23 L 328 23 L 328 352 L 47.046875 352 Z M 47.046875 23 " clip-rule="nonzero"/></clipPath></defs><g clip-path="url(#f4f82911d2)"><path fill="#7b4cee" d="M 47.046875 23.640625 L 72.574219 313.171875 L 187.128906 351.355469 L 302.414062 313.171875 L 327.945312 23.640625 Z M 272.496094 117.203125 L 138.042969 117.203125 L 141.042969 153.339844 L 269.496094 153.339844 L 259.546875 261.894531 L 187.933594 281.644531 L 187.933594 281.863281 L 187.128906 281.863281 L 114.929688 261.894531 L 110.539062 206.445312 L 145.433594 206.445312 L 147.992188 234.316406 L 187.128906 244.921875 L 226.410156 234.316406 L 230.800781 188.816406 L 108.710938 188.816406 L 99.347656 82.308594 L 275.714844 82.308594 Z M 272.496094 117.203125 " fill-opacity="1" fill-rule="nonzero"/></g></svg>