<svg xmlns="http://www.w3.org/2000/svg" xmlns:xlink="http://www.w3.org/1999/xlink" width="500" zoomAndPan="magnify" viewBox="0 0 375 374.999991" height="500" preserveAspectRatio="xMidYMid meet" version="1.0"><defs><clipPath id="3b4e3a5223"><path d="M 0 35.113281 L 375 35.113281 L 375 339.613281 L 0 339.613281 Z M 0 35.113281 " clip-rule="nonzero"/></clipPath></defs><g clip-path="url(#3b4e3a5223)"><path fill="#7b4cee" d="M 373.695312 204.828125 C 371.496094 189.363281 366.140625 174.699219 357.769531 161.242188 C 350.46875 149.5 341.101562 139.058594 329.917969 130.179688 L 329.949219 130.152344 L 212.519531 39.960938 C 212.4375 39.886719 212.347656 39.816406 212.257812 39.75 C 208.351562 36.761719 203.066406 35.113281 197.378906 35.113281 C 191.683594 35.113281 186.1875 36.765625 181.917969 39.761719 C 177.328125 42.96875 174.703125 47.222656 174.519531 51.753906 C 174.351562 55.976562 176.367188 60.042969 180.210938 63.214844 C 187.769531 69.175781 195.308594 75.269531 202.863281 81.371094 C 210.191406 87.292969 217.742188 93.394531 225.253906 99.332031 L 81.421875 99.234375 C 64.976562 99.234375 53.773438 106.957031 51.472656 119.890625 C 50.457031 125.554688 52.246094 131.78125 56.238281 136.550781 C 60.476562 141.609375 66.628906 144.398438 73.558594 144.398438 L 84.523438 144.402344 C 99.671875 144.402344 114.886719 144.367188 130.078125 144.332031 L 144.570312 144.296875 L 14.03125 240.871094 L 13.511719 241.25 C 6.21875 246.839844 1.445312 254.675781 0.417969 262.746094 C -0.363281 268.863281 1.0625 274.449219 4.542969 278.914062 C 8.691406 284.234375 15.171875 287.160156 22.785156 287.160156 C 30.265625 287.160156 37.898438 284.324219 44.289062 279.164062 L 114.78125 221.472656 C 114.480469 224.289062 114.113281 228.421875 114.15625 231.421875 C 114.234375 236.171875 115.761719 245.703125 118.171875 253.4375 C 123.160156 269.339844 131.5625 283.886719 143.144531 296.660156 C 155.191406 309.953125 169.867188 320.492188 186.757812 327.976562 C 204.617188 335.875 223.8125 339.882812 243.816406 339.882812 L 244 339.882812 C 264.070312 339.835938 283.324219 335.761719 301.238281 327.773438 C 318.160156 320.199219 332.828125 309.617188 344.832031 296.328125 C 356.398438 283.488281 364.785156 268.917969 369.765625 253.03125 C 372.234375 245.140625 373.804688 237.078125 374.46875 228.839844 C 375.082031 220.898438 374.820312 212.820312 373.695312 204.828125 Z M 245.277344 281.035156 C 201.191406 281.035156 165.441406 249.054688 165.441406 209.601562 C 165.441406 170.15625 201.191406 138.175781 245.277344 138.175781 C 289.363281 138.175781 325.109375 170.15625 325.109375 209.601562 C 325.113281 249.054688 289.363281 281.035156 245.277344 281.035156 Z M 291.316406 203.324219 C 291.96875 215.101562 287.265625 226.035156 279.003906 234.128906 C 270.605469 242.371094 258.617188 247.550781 245.210938 247.550781 C 231.8125 247.550781 219.820312 242.371094 211.417969 234.128906 C 203.160156 226.035156 198.46875 215.101562 199.113281 203.335938 C 199.746094 191.898438 205.324219 181.800781 213.730469 174.652344 C 221.992188 167.625 233.089844 163.335938 245.210938 163.335938 C 257.332031 163.335938 268.425781 167.625 276.6875 174.652344 C 285.097656 181.800781 290.679688 191.890625 291.316406 203.324219 Z M 291.316406 203.324219 " fill-opacity="1" fill-rule="nonzero"/></g></svg>