<svg xmlns="http://www.w3.org/2000/svg" xmlns:xlink="http://www.w3.org/1999/xlink" width="500" zoomAndPan="magnify" viewBox="0 0 375 374.999991" height="500" preserveAspectRatio="xMidYMid meet" version="1.0"><path fill="#7b4cee" d="M 105.703125 156.445312 C 105.292969 169.746094 111.914062 175.605469 112.089844 179.355469 C 112.011719 180.128906 111.761719 180.839844 111.335938 181.492188 C 110.914062 182.144531 110.363281 182.664062 109.6875 183.046875 L 102.1875 188.320312 C 101.199219 189.007812 100.105469 189.378906 98.90625 189.433594 C 98.671875 189.433594 94.101562 190.488281 86.894531 174.433594 C 85.800781 175.800781 84.632812 177.101562 83.390625 178.335938 C 82.148438 179.570312 80.839844 180.730469 79.464844 181.816406 C 78.089844 182.902344 76.660156 183.90625 75.167969 184.828125 C 73.679688 185.75 72.144531 186.582031 70.558594 187.332031 C 68.976562 188.078125 67.351562 188.730469 65.695312 189.292969 C 64.035156 189.855469 62.351562 190.320312 60.636719 190.6875 C 58.925781 191.058594 57.199219 191.328125 55.457031 191.5 C 53.714844 191.671875 51.964844 191.746094 50.214844 191.71875 C 40.664062 192.246094 14.824219 186.328125 16.171875 158.789062 C 15.234375 136.347656 36.152344 122.402344 57.714844 123.574219 C 61.875 123.574219 70.371094 123.808594 85.253906 127.265625 L 85.253906 118.125 C 86.835938 102.597656 76.640625 90.585938 59.003906 92.402344 C 57.597656 92.402344 47.636719 92.109375 32.167969 98.320312 C 27.832031 100.3125 27.304688 99.960938 25.839844 99.960938 C 21.503906 99.960938 23.261719 87.363281 24.140625 85.78125 C 27.1875 82.03125 45.175781 75 62.753906 75.117188 C 65.671875 74.859375 68.589844 74.886719 71.503906 75.199219 C 74.417969 75.511719 77.273438 76.101562 80.070312 76.972656 C 82.867188 77.839844 85.558594 78.972656 88.132812 80.367188 C 90.710938 81.757812 93.132812 83.386719 95.390625 85.253906 C 97.246094 87.328125 98.878906 89.570312 100.28125 91.976562 C 101.683594 94.382812 102.832031 96.902344 103.722656 99.542969 C 104.613281 102.179688 105.230469 104.882812 105.574219 107.644531 C 105.917969 110.410156 105.980469 113.179688 105.761719 115.957031 L 105.761719 156.5625 Z M 55.078125 175.429688 C 74.0625 175.136719 82.148438 163.710938 83.964844 157.558594 C 85.429688 151.640625 85.195312 147.949219 85.195312 141.503906 C 79.511719 140.15625 71.367188 138.632812 61.992188 138.632812 C 53.085938 137.988281 36.914062 141.914062 37.558594 157.558594 C 36.855469 167.402344 44.0625 175.957031 55.136719 175.429688 Z M 155.214844 188.964844 C 150.585938 189.375 148.476562 186.09375 147.773438 182.871094 L 118.59375 86.367188 C 118.007812 84.726562 117.65625 83.027344 117.480469 81.328125 C 117.421875 80.96875 117.433594 80.613281 117.519531 80.261719 C 117.605469 79.910156 117.753906 79.585938 117.96875 79.292969 C 118.183594 79.003906 118.449219 78.761719 118.757812 78.578125 C 119.070312 78.390625 119.40625 78.273438 119.765625 78.222656 C 119.882812 78.222656 118.535156 78.222656 132.832031 78.222656 C 137.988281 77.695312 139.628906 81.738281 140.214844 84.316406 L 161.132812 166.816406 L 180.585938 84.316406 C 180.878906 82.441406 182.285156 77.8125 188.085938 78.339844 L 198.164062 78.339844 C 199.453125 78.222656 204.667969 78.046875 205.605469 84.433594 L 225.175781 167.988281 L 246.679688 84.433594 C 246.972656 83.144531 248.261719 77.753906 254.121094 78.339844 L 265.664062 78.339844 C 266.191406 78.28125 269.296875 77.871094 268.769531 83.378906 C 268.535156 84.492188 270.761719 77.109375 237.832031 182.929688 C 237.128906 186.152344 235.019531 189.433594 230.390625 189.023438 L 219.433594 189.023438 C 213.046875 189.726562 212.109375 183.339844 211.992188 182.695312 L 192.597656 102.363281 L 173.378906 182.636719 C 173.261719 183.28125 172.382812 189.609375 165.9375 188.964844 Z M 315.46875 192.246094 C 312.011719 192.246094 295.605469 192.070312 281.835938 185.039062 C 281.152344 184.75 280.527344 184.367188 279.957031 183.890625 C 279.386719 183.414062 278.898438 182.867188 278.492188 182.246094 C 278.085938 181.625 277.777344 180.960938 277.570312 180.246094 C 277.359375 179.535156 277.257812 178.808594 277.265625 178.066406 L 277.265625 171.738281 C 277.265625 166.757812 280.898438 167.695312 282.421875 168.28125 C 288.28125 170.683594 292.089844 172.441406 299.296875 173.90625 C 320.800781 178.300781 330.234375 172.558594 332.519531 171.269531 C 340.253906 166.699219 340.839844 156.210938 335.625 150.761719 C 329.472656 145.605469 326.542969 145.429688 304.511719 138.457031 C 301.816406 137.695312 278.90625 130.488281 278.847656 107.753906 C 278.496094 91.230469 293.554688 74.824219 319.570312 74.941406 C 327.011719 74.941406 346.757812 77.34375 352.148438 84.082031 C 352.96875 85.3125 353.320312 86.777344 353.261719 88.183594 L 353.261719 94.101562 C 353.261719 96.679688 352.324219 98.027344 350.390625 98.027344 C 345.878906 97.5 337.851562 91.464844 321.5625 91.699219 C 317.519531 91.464844 298.183594 92.226562 299.0625 106.347656 C 298.828125 117.480469 314.648438 121.640625 316.464844 122.109375 C 337.851562 128.554688 345 129.609375 353.4375 139.453125 C 363.457031 152.519531 358.066406 167.753906 356.015625 171.914062 C 344.824219 193.886719 315.9375 192.070312 315.410156 192.070312 Z M 339.023438 253.710938 C 298.007812 284.003906 238.417969 300.175781 187.558594 300.175781 C 179.070312 300.230469 170.597656 299.894531 162.144531 299.164062 C 153.6875 298.433594 145.28125 297.316406 136.929688 295.808594 C 128.578125 294.300781 120.3125 292.410156 112.136719 290.136719 C 103.957031 287.863281 95.902344 285.214844 87.972656 282.195312 C 80.039062 279.175781 72.261719 275.796875 64.644531 272.054688 C 57.027344 268.316406 49.597656 264.230469 42.355469 259.800781 C 35.113281 255.375 28.09375 250.621094 21.292969 245.542969 C 14.492188 240.460938 7.941406 235.082031 1.640625 229.394531 C -2.167969 225.9375 1.171875 221.191406 5.859375 223.828125 C 19.933594 231.878906 34.472656 238.980469 49.472656 245.136719 C 64.472656 251.292969 79.808594 256.453125 95.480469 260.609375 C 111.148438 264.769531 127.023438 267.894531 143.105469 269.984375 C 159.183594 272.078125 175.328125 273.117188 191.542969 273.105469 C 203.671875 273.039062 215.773438 272.375 227.835938 271.117188 C 239.902344 269.855469 251.875 268.007812 263.761719 265.566406 C 275.644531 263.128906 287.378906 260.109375 298.964844 256.511719 C 310.546875 252.917969 321.929688 248.761719 333.105469 244.042969 C 340.019531 241.113281 345.878906 248.613281 339.023438 253.652344 Z M 356.132812 234.199219 C 350.859375 227.460938 321.386719 231.035156 308.203125 232.617188 C 304.21875 233.085938 303.574219 229.628906 307.148438 227.050781 C 330.644531 210.527344 369.199219 215.273438 373.59375 220.839844 C 378.046875 226.40625 372.363281 265.019531 350.390625 283.476562 C 346.992188 286.347656 343.769531 284.824219 345.292969 281.074219 C 350.214844 268.59375 361.347656 240.9375 356.074219 234.199219 Z M 356.132812 234.199219 " fill-opacity="1" fill-rule="nonzero"/></svg>