<svg xmlns="http://www.w3.org/2000/svg" xmlns:xlink="http://www.w3.org/1999/xlink" width="500" zoomAndPan="magnify" viewBox="0 0 375 374.999991" height="500" preserveAspectRatio="xMidYMid meet" version="1.0"><path fill="#7b4cee" d="M 0 -0.00390625 L 0 374.996094 L 375 374.996094 L 375 -0.00390625 Z M 204.074219 292.464844 C 204.074219 328.960938 182.644531 345.617188 151.421875 345.617188 C 123.214844 345.617188 106.890625 331.050781 98.519531 313.390625 L 127.230469 296.0625 C 132.757812 305.855469 137.777344 314.144531 149.917969 314.144531 C 161.46875 314.144531 168.832031 309.625 168.832031 291.960938 L 168.832031 172.179688 L 204.074219 172.179688 Z M 287.445312 345.617188 C 254.714844 345.617188 233.539062 330.046875 223.242188 309.625 L 251.953125 293.050781 C 259.488281 305.355469 269.363281 314.476562 286.691406 314.476562 C 301.253906 314.476562 310.628906 307.195312 310.628906 297.066406 C 310.628906 285.015625 301.089844 280.746094 284.933594 273.628906 L 276.144531 269.863281 C 250.699219 259.066406 233.871094 245.421875 233.871094 216.710938 C 233.871094 190.257812 254.046875 170.171875 285.433594 170.171875 C 307.867188 170.171875 323.941406 177.953125 335.492188 198.378906 L 308.035156 215.957031 C 302.007812 205.160156 295.480469 200.890625 285.351562 200.890625 C 275.054688 200.890625 268.527344 207.417969 268.527344 215.957031 C 268.527344 226.503906 275.054688 230.773438 290.207031 237.386719 L 298.996094 241.152344 C 328.960938 253.960938 345.785156 267.101562 345.785156 296.566406 C 345.785156 328.207031 320.84375 345.617188 287.445312 345.617188 Z M 287.445312 345.617188 " fill-opacity="1" fill-rule="nonzero"/></svg>